<?xml version="1.0" encoding="UTF-8" standalone="no"?>
<svg
   width="2.7820251in"
   height="2.9710038in"
   viewBox="0 0 1669.2157 1782.603"
   version="1.1"
   id="svg1"
   sodipodi:docname="pathlogo.svg"
   inkscape:version="1.4 (86a8ad7, 2024-10-11)"
   inkscape:export-filename="pathlogo.svg"
   inkscape:export-xdpi="96"
   inkscape:export-ydpi="96"
   xmlns:inkscape="http://www.inkscape.org/namespaces/inkscape"
   xmlns:sodipodi="http://sodipodi.sourceforge.net/DTD/sodipodi-0.dtd"
   xmlns="http://www.w3.org/2000/svg"
   xmlns:svg="http://www.w3.org/2000/svg">
  <defs
     id="defs1">
    <filter
       style="color-interpolation-filters:sRGB;"
       inkscape:label="Clean Edges"
       id="filter11"
       x="-0.0085773004"
       y="-0.0085881163"
       width="1.0171547"
       height="1.0166252">
      <feGaussianBlur
         stdDeviation="0.264817"
         result="blur"
         id="feGaussianBlur10" />
      <feComposite
         in="SourceGraphic"
         in2="blur"
         operator="in"
         result="composite1"
         id="feComposite10" />
      <feComposite
         in="composite1"
         in2="composite1"
         k2="1"
         operator="in"
         result="fbSourceGraphic"
         id="feComposite11" />
      <feColorMatrix
         result="fbSourceGraphicAlpha"
         in="fbSourceGraphic"
         values="0 0 0 -1 0 0 0 0 -1 0 0 0 0 -1 0 0 0 0 1 0"
         id="feColorMatrix11" />
      <feGaussianBlur
         id="feGaussianBlur11"
         stdDeviation="1.61171"
         result="blur"
         in="fbSourceGraphic" />
      <feComposite
         id="feComposite12"
         in="fbSourceGraphic"
         in2="blur"
         operator="in"
         result="composite1" />
      <feComposite
         id="feComposite13"
         in="composite1"
         in2="composite1"
         k2="1"
         operator="in"
         result="fbSourceGraphic" />
      <feColorMatrix
         result="fbSourceGraphicAlpha"
         in="fbSourceGraphic"
         values="0 0 0 -1 0 0 0 0 -1 0 0 0 0 -1 0 0 0 0 1 0"
         id="feColorMatrix13" />
      <feGaussianBlur
         id="feGaussianBlur13"
         stdDeviation="1.87866"
         result="blur"
         in="fbSourceGraphic" />
      <feComposite
         id="feComposite14"
         in="fbSourceGraphic"
         in2="blur"
         operator="in"
         result="composite1" />
      <feComposite
         id="feComposite15"
         in="composite1"
         in2="composite1"
         k2="1"
         operator="in"
         result="fbSourceGraphic" />
      <feColorMatrix
         result="fbSourceGraphicAlpha"
         in="fbSourceGraphic"
         values="0 0 0 -1 0 0 0 0 -1 0 0 0 0 -1 0 0 0 0 1 0"
         id="feColorMatrix15" />
      <feGaussianBlur
         id="feGaussianBlur15"
         stdDeviation="2"
         result="blur"
         in="fbSourceGraphic" />
      <feComposite
         id="feComposite16"
         in="fbSourceGraphic"
         in2="blur"
         operator="in"
         result="composite1" />
      <feComposite
         id="feComposite17"
         in="composite1"
         in2="composite1"
         k2="1"
         operator="in"
         result="composite2" />
    </filter>
  </defs>
  <sodipodi:namedview
     id="namedview1"
     pagecolor="#ffffff"
     bordercolor="#000000"
     borderopacity="0.25"
     inkscape:showpageshadow="2"
     inkscape:pageopacity="0.0"
     inkscape:pagecheckerboard="0"
     inkscape:deskcolor="#d1d1d1"
     inkscape:document-units="in"
     inkscape:zoom="2"
     inkscape:cx="-6"
     inkscape:cy="210.75"
     inkscape:window-width="2560"
     inkscape:window-height="1361"
     inkscape:window-x="1911"
     inkscape:window-y="-9"
     inkscape:window-maximized="1"
     inkscape:current-layer="layer1" />
  <g
     inkscape:groupmode="layer"
     id="layer1"
     inkscape:label="logo"
     transform="translate(-1528.399,-1436.2732)"
     style="display:inline;opacity:1">
    <path
       id="Selection"
       fill="none"
       stroke="#000000"
       stroke-width="1"
       d="m 2312,1437 v 832 c 0,2.27 0.22,5.66 -1.02,7.61 -1.8,2.82 -17.08,9.69 -20.98,11.64 l -36,18.5 -33,16.67 -43,21.83 -30,15.49 -9,3.59 -18,8.93 -206,104.99 -67,34.49 -104,53 -63,32.01 -37,18.67 -37,18.83 -28,14.5 -15,7.49 c -1.46,0.69 -4.73,2.45 -6.18,0.95 -1.32,-1.36 0.13,-3.88 0.82,-5.19 0,0 4.4398,-7.3416 6.68,-11 10.2286,-16.7044 30.87,-50 30.87,-50 l 128.81,-209 21.58,-34 66,-107 192.84,-313 152.38,-247 c 53.4933,-81.0435 96.0826,-168.4036 154.2,-245 z m 105,0 c 71.2627,105.7433 135.8507,216.3496 202.81,325 l 225.77,366 139.84,227 11.16,17 115.23,187 37.61,61 21.58,36 c 0.8636,1.4407 1.0239,1.0754 -2.4661,-0.1094 -2.7027,-0.9175 -9.8905,-3.4226 -22.5339,-9.5806 l -37,-18.56 -22,-11.5 -236,-120 -74,-37.99 -43,-21.52 -116,-59.48 -25,-12.47 -10,-4.05 -22,-11.49 -44,-22.39 -36,-18.11 -41,-21 -15,-7.5 c -2.58,-1.3 -6.47,-2.91 -7.98,-5.46 -1.22,-2.08 -1.02,-5.41 -1.02,-7.79 v -572 -176 -54 c 0,-7.21 -0.78,-21.72 1,-28 z M 1529.1381,2792.4834 C 1536.9967,2788.2019 1546,2783.25 1546,2783.25 l 47,-23.99 43,-21.52 63,-32.49 208,-105.99 96,-48.52 133,-67.99 165,-84 45,-23 c 3.36,-1.68 16.35,-8.87 19,-8.95 2.77,-0.07 8.35,3.12 11,4.45 l 22,11 83,42.5 204,103.99 102,51.95 37,18.56 61,31.01 116,59.49 53,27 48,24.39 36,18.11 38,19.5 16.98,8.51 c 1.88,1.04 5.12,2.72 3.85,5.4 -0.78,1.65 -4.24,3.42 -5.83,4.34 l -16,8.25 -61,31 -138,70.49 -94,47.52 -220,112.48 -43,21.52 -123,62.99 -99,50.5 -25,12.5 c -3.43,1.71 -8.12,4.74 -12,4.01 -2.52,-0.47 -13.9,-6.46 -17,-8.01 l -35,-17.99 -103,-52.48 -97,-49.04 -220,-112.48 -147,-74.52 -122,-62.49 -67,-34 c -4.07,-2.04 -18.0261,-9.7641 -20.8576,-12.1234 -1.0364,-0.8966 -3.1589,-2.0142 -2.0043,-2.6432 z"
       sodipodi:nodetypes="csccccccccccccccccccaccccccccccccccsscccccccccccccccsccscsccccccccccccccccccccccccccccccccccccccccccccs"
       style="fill:#00ffcc;filter:url(#filter11)"
       inkscape:label="Selection" />
  </g>
</svg>
