<?xml version="1.0" encoding="UTF-8" standalone="no"?>
<svg
   width="88.964mm"
   height="8.517mm"
   viewBox="0 0 1779.2746 170.34811"
   version="1.1"
   id="svg1"
   xmlns="http://www.w3.org/2000/svg"
   xmlns:svg="http://www.w3.org/2000/svg">
  <defs
     id="defs1" />
  <g
     id="layer1"
     style="display:inline;fill:#fff6d5;fill-opacity:1"
     transform="translate(-76.417963,-68.783519)">
    <path
       style="fill:#fff6d5;fill-opacity:1;stroke-width:1.24023"
       d="m 1122.1175,232.46288 c -1.8669,-1.01282 -3.706,-3.08371 -4.0854,-4.60136 -0.381,-1.51765 -0.5239,-19.62277 -0.3255,-40.23375 0.3334,-34.01305 0.5715,-37.67891 2.5773,-39.68749 1.9971,-1.99787 5.9746,-2.27965 40.9278,-2.89639 41.7437,-0.73819 46.5934,-1.41367 52.9985,-7.39696 6.9962,-6.53494 6.4143,-18.86743 -1.2334,-26.14239 -7.0771,-6.73179 -11.2969,-7.32472 -52.1416,-7.32472 h -36.1331 l -3.6251,-3.62505 c -3.4004,-3.400428 -3.625,-4.238628 -3.625,-13.505181 0,-7.877173 0.4842,-10.47329 2.3693,-12.807788 l 2.3694,-2.928143 41.2269,-0.357187 c 26.6661,-0.230187 43.5562,0.127 47.822,1.010443 16.0845,3.339306 30.839,14.7874 37.7673,29.304206 7.2398,15.16999 6.0714,38.07221 -2.644,51.81456 -3.0686,4.83949 -15.7162,15.68347 -19.9285,17.08761 -2.4837,0.82788 -0.066,5.36654 15.1285,28.40021 11.0994,16.82622 14.7897,23.4049 14.7755,26.33979 -0.037,7.55094 -3.6838,9.49301 -17.8246,9.49301 -15.9139,0 -14.3764,1.25254 -30.4562,-24.80468 -15.6772,-25.40452 -15.9876,-25.85823 -18.9806,-27.74886 -1.9344,-1.22158 -8.0096,-1.92722 -19.7582,-2.29393 -16.3436,-0.508 -16.9906,-0.43657 -17.6564,2.0439 -0.381,1.41526 -0.6985,12.50521 -0.7065,24.64395 -0.017,21.76882 -0.058,22.1122 -3.0607,25.1148 -2.7225,2.72256 -4.0656,3.03926 -12.7124,2.99481 -6.1143,-0.0314 -10.9162,-0.73025 -13.0631,-1.8915 z"
       id="path1" />
    <path
       style="fill:#fff6d5;fill-opacity:1;stroke-width:1.24023"
       d="m 1305.1609,168.69985 c -3.7719,-1.55099 -5.746,-8.70108 -5.1784,-18.75123 0.3889,-6.82704 1.0517,-9.14233 3.267,-11.35895 2.7782,-2.77971 2.8663,-2.78448 52.2717,-3.14722 57.1456,-0.42069 57.2063,-0.41275 59.64,8.62735 2.1653,8.04179 1.0112,19.12635 -2.3408,22.47978 -2.7313,2.73209 -2.9281,2.7432 -53.8676,2.99482 -28.1194,0.13494 -52.3259,-0.23812 -53.7922,-0.84455 z"
       id="path2" />
    <path
       style="fill:#fff6d5;fill-opacity:1;stroke-width:1.24023"
       d="m 1303.5551,101.76833 c -3.1234,-3.123406 -4.2831,-9.590879 -3.4226,-19.082063 1.1581,-12.771196 -2.8075,-11.992924 61.1032,-11.992924 38.2315,0 55.9321,0.428625 58.0698,1.400968 4.4807,2.041525 6.0658,7.108823 5.5317,17.680697 -0.7938,15.649092 4.568,14.404492 -62.0125,14.404492 -54.6612,0 -56.9518,-0.0953 -59.2699,-2.41141 z"
       id="path3" />
    <path
       style="fill:#fff6d5;fill-opacity:1;stroke-width:1.24023"
       d="m 1305.1017,232.91977 c -4.6791,-2.2606 -6.7484,-13.46772 -4.5331,-24.54513 1.4613,-7.30488 2.7448,-7.45648 62.96,-7.45648 h 53.9208 l 3.4798,2.99323 c 3.3425,2.87496 3.4798,3.4417 3.4798,14.37227 0,17.52178 5.284,16.13772 -61.2189,16.03684 -36.3416,-0.0551 -56.2993,-0.53975 -58.0881,-1.40018 z"
       id="path4" />
    <path
       style="fill:#fff6d5;fill-opacity:1;stroke-width:1.24023"
       d="m 1524.628,236.86034 c -9.5097,-0.96203 -11.4495,-3.47901 -20.8891,-27.10489 -4.5307,-11.34086 -15.5242,-38.47917 -24.4291,-60.30728 -20.8338,-51.068834 -26.9957,-67.183384 -26.9957,-70.597937 0,-1.520031 1.2914,-3.97748 2.8702,-5.460205 2.821,-2.649536 3.5425,-2.696368 41.6042,-2.696368 h 38.7337 l 3.0441,3.044031 c 2.7836,2.78368 3.044,4.005261 3.044,14.262731 0,16.243538 0.095,16.179398 -23.5645,16.179398 -10.9309,0 -18.6035,0.48419 -18.6035,1.17872 0,0.65087 4.93,13.6244 10.955,28.83542 6.0254,15.2111 12.5183,31.98185 14.4288,37.2683 3.4108,9.438 6.1167,12.06341 7.6692,7.4414 1.2359,-3.68061 35.3975,-91.139458 37.7943,-96.759762 1.2414,-2.91068 3.6425,-6.677817 5.3364,-8.3716 2.867,-2.867024 3.9314,-3.078955 15.4478,-3.078955 11.8849,0 12.4692,0.127 14.9391,3.267868 1.4137,1.797049 2.5702,4.005261 2.5702,4.905373 0,4.516437 -59.207,150.061016 -62.6928,154.113586 -3.0163,3.50679 -10.8381,4.93395 -21.2628,3.87985 z"
       id="path5" />
    <path
       style="fill:#fff6d5;fill-opacity:1;stroke-width:1.24023"
       d="m 1648.8911,232.92223 c -1.3644,-0.76994 -2.8908,-2.01216 -3.3917,-2.75273 -0.5,-0.73818 -0.9199,-21.28567 -0.9302,-45.65601 l -0.019,-44.30981 3.1186,-2.04311 c 6.4016,-4.19418 23.4565,-3.68459 27.9768,0.83502 2.2701,2.27013 2.3907,4.58629 2.3907,45.85564 v 43.46455 l -3.044,3.04403 c -2.7503,2.75034 -4.0362,3.04086 -13.3325,3.00672 -5.6587,-0.0207 -11.4045,-0.66675 -12.7688,-1.44462 z"
       id="path6" />
    <path
       style="fill:#fff6d5;fill-opacity:1;stroke-width:1.24023"
       d="m 1647.5945,125.94015 c -3.017,-3.01704 -3.044,-3.25278 -3.044,-26.44885 0,-22.861026 0.067,-23.467292 2.8702,-26.101272 2.4948,-2.343943 4.2878,-2.696368 13.699,-2.696368 9.914,0 11.0919,0.261938 13.9476,3.119437 l 3.1195,3.119437 -0.389,23.657866 c -0.373,23.14805 -0.4445,23.70883 -3.3131,26.02627 -2.3646,1.91214 -4.9419,2.36855 -13.3889,2.36855 -9.453,0 -10.7543,-0.29369 -13.5052,-3.04403 z"
       id="path7" />
    <path
       style="fill:#fff6d5;fill-opacity:1;stroke-width:1.24023"
       d="m 1719.0615,101.51766 c -4.7744,-5.125239 -4.988,-20.799337 -0.3652,-26.996221 2.3019,-3.087686 2.9329,-3.221036 16.795,-3.556792 12.9377,-0.3175 14.6509,-0.103188 16.8419,2.089943 6.4031,6.403179 6.5016,26.46965 0.1428,29.87055 -1.2898,0.69056 -8.7778,1.25492 -16.6406,1.25492 -13.0237,0 -14.5166,-0.23813 -16.7759,-2.66224 z"
       id="path8" />
    <path
       style="fill:#fff6d5;fill-opacity:1;stroke-width:1.24023"
       d="m 1771.4335,233.89147 -3.4798,-2.99323 v -76.29086 c 0,-75.652054 0.022,-76.320153 2.6138,-79.792412 l 2.6138,-3.50123 36.4538,-0.341313 c 39.6028,-0.373062 40.9654,-0.174625 43.2156,6.284117 2.9726,8.527334 0.8453,23.270368 -3.71,25.708208 -1.2478,0.66675 -12.0525,1.21364 -24.0105,1.21364 h -21.742 l -0.3572,62.32174 c -0.381,67.074 -0.2778,66.05832 -6.8564,69.05481 -1.6034,0.73025 -7.0438,1.32873 -12.0899,1.32873 -7.9098,0 -9.6539,-0.41275 -12.6541,-2.99323 z"
       id="path9" />
    <path
       style="fill:#fff6d5;fill-opacity:1;stroke-width:1.24023"
       d="m 889.03429,168.50276 c -4.1402,-1.51606 -5.98725,-6.5143 -5.98725,-16.20067 0,-9.84686 2.37728,-14.17867 8.71704,-15.88587 3.28136,-0.88344 21.24852,-1.21602 52.67482,-0.97552 l 47.69516,0.36513 3.42106,3.42265 c 3.15357,3.15515 3.41789,4.17274 3.38455,13.02242 -0.0407,10.61505 -1.59861,14.69762 -6.28809,16.48062 -4.14972,1.57798 -99.25706,1.36763 -103.61689,-0.23018 z"
       id="path10" />
    <path
       style="fill:#fff6d5;fill-opacity:1;stroke-width:1.24023"
       d="M 886.85672,101.78857 C 884.027,98.958852 882.48316,90.195378 883.392,82.128499 c 0.47625,-4.229099 1.54146,-6.538911 3.98463,-8.639887 l 3.33375,-2.867818 56.27598,0.34925 c 52.09063,0.3175 56.44074,0.508 58.48984,2.559843 1.8097,1.808956 2.2138,4.33308 2.2138,13.819105 0,18.466988 5.9761,16.833448 -61.58383,16.833448 -54.49624,0 -56.95789,-0.10319 -59.24961,-2.39077 z"
       id="path11" />
    <path
       style="fill:#fff6d5;fill-opacity:1;stroke-width:1.24023"
       d="m 888.44224,233.17146 c -3.8227,-1.54225 -5.82613,-8.7926 -5.06254,-18.31466 1.143,-14.24154 -3.23929,-13.26102 61.08143,-13.66591 47.57895,-0.30163 55.65117,-0.0873 58.82197,1.55337 4.4014,2.27647 5.5555,6.81196 4.7903,18.82893 -0.8731,13.71092 3.3116,12.84462 -61.6025,12.75247 -30.44967,-0.0433 -56.56277,-0.56357 -58.02898,-1.15412 z"
       id="path12" />
    <path
       style="fill:#fff6d5;fill-opacity:1;stroke-width:1.24023"
       d="m 737.14178,233.17448 c -6.82704,-2.7551 -6.64369,-0.52387 -6.64369,-80.99709 V 77.94393 l 3.62506,-3.625056 c 3.43138,-3.43138 4.18227,-3.625055 14.04651,-3.625055 9.59826,0 10.65863,0.254 13.42795,3.199606 l 3.00672,3.199605 0.37306,71.5244 c 0.20638,39.33847 0.0266,73.40066 -0.38893,75.6938 -0.42069,2.29315 -2.09471,5.50228 -3.72348,7.13105 -2.60033,2.60032 -4.06797,2.95275 -12.01007,2.88369 -4.97682,-0.0433 -10.24406,-0.56356 -11.70591,-1.15093 z"
       id="path13" />
    <path
       style="fill:#fff6d5;fill-opacity:1;stroke-width:1.24023"
       d="m 781.79901,232.95366 c -3.90683,-1.8923 -5.41258,-6.31428 -5.41258,-15.9019 0,-7.25488 0.45244,-9.0828 2.99324,-12.03389 l 2.99323,-3.4798 h 27.97825 c 26.94431,0 28.07636,0.0952 30.63517,2.65669 5.49592,5.49592 5.43321,23.4915 -0.0952,27.97031 -2.48285,2.01057 -5.50228,2.23044 -29.60258,2.15503 -15.7661,-0.0493 -27.93047,-0.61119 -29.4867,-1.36684 z"
       id="path14" />
    <path
       style="fill:#fff6d5;fill-opacity:1;stroke-width:1.24023"
       d="m 563.35828,233.17948 c -1.54464,-0.65087 -3.38217,-2.69795 -4.08305,-4.54263 -1.97088,-5.18398 -1.01203,-74.26505 1.05966,-76.33833 1.2192,-1.22079 10.83158,-1.76927 39.68749,-2.26536 32.71368,-0.56356 38.77078,-0.96203 42.99385,-2.83766 6.30872,-2.80193 9.05026,-5.33082 11.95959,-11.03082 4.4061,-8.63322 1.5994,-21.38108 -5.87851,-26.69634 -6.53574,-4.64582 -12.23423,-5.27526 -47.83518,-5.28241 -22.52447,-0.005 -35.39902,-0.48418 -37.38029,-1.3835 -4.21482,-1.92088 -5.77612,-6.105526 -5.77612,-15.486141 0,-9.179637 2.25425,-14.701437 6.46192,-15.828482 4.74979,-1.272381 75.83517,-0.881856 82.88533,0.452437 28.50181,5.405437 47.99734,33.885736 43.41447,63.422986 -3.52108,22.69315 -18.48866,39.11599 -41.14641,45.14659 -4.74344,1.26285 -14.06096,1.77641 -32.39372,1.78673 l -25.73487,0.0147 v 22.80697 c 0,28.7678 0.127,28.52491 -15.08324,28.95488 -5.68801,0.15875 -11.60541,-0.24606 -13.15013,-0.89693 z"
       id="path15" />
    <path
       style="fill:#fff6d5;fill-opacity:1;stroke-width:1.24023"
       d="m 476.6323,232.92286 c -1.49542,-0.72231 -3.16944,-2.21932 -3.7203,-3.3266 -0.54769,-1.10728 -1.28191,-23.50024 -1.62243,-49.76216 l -0.61912,-47.74905 -17.20421,21.70413 c -19.22557,24.25406 -23.43078,28.52539 -28.08422,28.52539 -4.48786,0 -7.02071,-2.94323 -37.89107,-44.02835 -14.86368,-19.78168 -29.5171,-39.0363 -32.56327,-42.788037 -5.57054,-6.86038 -8.90071,-13.131559 -8.90071,-16.75971 0,-1.076324 1.37001,-3.326605 3.04403,-5.000623 2.77177,-2.771775 4.02034,-3.043237 13.95269,-3.037681 8.25309,0.0049 11.729,0.531813 14.27948,2.170112 3.06705,1.969293 33.15501,40.159849 42.24217,53.618989 2.07804,3.07737 3.91875,5.78009 4.09099,6.0063 1.28587,1.68672 7.57634,-5.64991 25.23989,-29.43462 11.18791,-15.065132 21.42474,-28.371315 22.74847,-29.569322 1.96692,-1.78038 4.7379,-2.178049 15.1688,-2.178049 20.04734,0 17.98343,-9.280443 17.98343,80.863811 v 76.13855 l -3.04403,3.04403 c -2.73049,2.7297 -4.04177,3.0353 -12.71245,2.95989 -5.31733,-0.0461 -10.89136,-0.67469 -12.38631,-1.397 z"
       id="path16" />
    <path
       style="fill:#fff6d5;fill-opacity:1;stroke-width:1.24023"
       d="m 349.06949,231.36005 c -2.99879,-2.99879 -3.04403,-3.36312 -3.02736,-24.49464 0.009,-11.79775 0.35718,-22.72847 0.77787,-24.29065 1.10331,-4.11877 6.66115,-6.46192 15.32834,-6.46192 8.01156,0 13.99786,2.23044 15.99303,5.95789 0.65087,1.21681 1.36525,11.1171 1.5867,22.00131 0.5715,28.19233 -0.71437,30.33148 -18.3149,30.33148 -8.22015,0 -9.65319,-0.35718 -12.344,-3.04403 z"
       id="path17" />
    <path
       style="fill:#fff6d5;fill-opacity:1;stroke-width:1.24023"
       d="m 264.16985,232.86682 c -1.70529,-0.89535 -3.76674,-3.56631 -4.58089,-5.93645 -1.86951,-5.44116 -2.18217,-75.40988 -0.36591,-81.94729 1.83284,-6.59844 5.13397,-8.94754 13.36508,-9.51134 8.91277,-0.61119 16.41998,1.78911 18.50429,5.91502 1.1684,2.3122 1.57083,13.70925 1.58512,44.82107 0.0221,50.36469 0.95964,47.38083 -15.06498,47.93153 -6.77386,0.23019 -11.4111,-0.20637 -13.44215,-1.27238 z"
       id="path18" />
    <path
       style="fill:#fff6d5;fill-opacity:1;stroke-width:1.24023"
       d="m 262.40178,125.8661 c -3.82198,-4.12353 -4.43309,-7.82399 -4.43309,-26.84224 0,-16.713671 1.44518,-23.227976 5.90431,-26.613716 2.89719,-2.19948 21.2355,-2.219324 24.12261,-0.02595 1.16681,0.886618 2.75749,3.24088 3.53536,5.231605 1.69069,4.329905 1.67799,39.935061 -0.0166,44.391171 -2.02723,5.33162 -5.92216,6.97706 -16.51761,6.97706 -8.77364,0 -9.98244,-0.30162 -12.59481,-3.11784 z"
       id="path19" />
    <path
       style="fill:#fff6d5;fill-opacity:1;stroke-width:1.24023"
       d="m 181.87563,126.70422 c -1.1349,-1.25413 -3.59331,-5.28558 -5.46322,-8.95969 -2.9999,-5.89359 -4.45461,-7.24138 -12.36804,-11.45302 -8.02953,-4.27355 -9.10657,-5.28716 -10.28944,-9.679855 -1.65267,-6.137274 -0.31274,-19.580776 2.24369,-22.507649 1.04251,-1.193799 3.35503,-2.170112 5.1389,-2.170112 5.88819,0 21.69709,5.060155 27.59318,8.83134 12.61925,8.072356 21.61003,21.803756 22.98238,35.100566 0.63976,6.19998 0.42228,6.985 -2.75082,9.92553 -3.15301,2.92179 -4.36181,3.19325 -14.23441,3.19325 -8.89765,0 -11.15049,-0.39687 -12.85224,-2.28044 z"
       id="path20" />
    <path
       style="fill:#fff6d5;fill-opacity:1;stroke-width:1.24023"
       d="m 159.99019,236.00483 c -5.35085,-1.96746 -6.20117,-4.1394 -6.20117,-15.83927 0,-13.44065 1.03823,-14.9271 12.94427,-18.5316 11.61507,-3.51631 16.69482,-10.50195 13.56599,-18.6555 -1.63417,-4.25847 -13.691,-8.90087 -42.01318,-16.17646 -28.19053,-7.24218 -44.504839,-16.61525 -50.906558,-29.24841 -11.268707,-22.2377 -2.910601,-46.85553 20.050418,-59.056179 6.8345,-3.631405 19.97641,-7.804147 24.58031,-7.804147 1.12625,0 3.41765,1.370012 5.09198,3.04403 2.77559,2.775743 3.04419,4.017168 3.04419,14.070485 0,12.800961 -0.44529,13.486761 -11.42069,17.587031 -7.06184,2.63843 -13.38399,8.31906 -13.38399,12.02627 0,1.03901 1.81626,3.70522 4.03614,5.92534 4.38269,4.38308 14.23773,7.90813 45.54778,16.29441 19.56578,5.24034 28.98787,9.66819 37.57169,17.65562 9.3607,8.71037 12.03613,15.46423 12.05095,30.42149 0.0109,11.03058 -0.35083,12.98471 -3.69887,20.00067 -4.44317,9.30989 -10.67903,15.24055 -21.99294,20.91665 -6.52367,3.27263 -24.38014,8.73847 -26.63073,8.15126 -0.20637,-0.0538 -1.21245,-0.40481 -2.23567,-0.78581 z"
       id="path21" />
    <path
       style="display:inline;fill:#fff6d5;fill-opacity:1;stroke-width:1.24023"
       d="m 116.28024,231.40021 c -20.018487,-7.06517 -30.55523,-17.73324 -36.148332,-36.59853 -2.649061,-8.93516 -2.518489,-12.73024 0.573087,-16.66081 2.416492,-3.07181 3.201669,-3.26787 13.103991,-3.26787 5.793421,0 11.655334,0.60325 13.026464,1.3343 1.37113,0.73025 4.0517,4.80853 5.95686,9.05446 3.9593,8.82459 8.58062,13.24554 17.07301,16.33291 9.20025,3.34486 10.28091,5.22367 10.28091,17.87199 0,8.91929 -0.40085,11.19505 -2.26806,12.8851 -3.2289,2.92179 -11.67741,2.55032 -21.59814,-0.95171 z"
       id="path22" />
    <path
       id="Selection"
       fill="none"
       stroke="#000000"
       stroke-width="1"
       d="m 128.17983,69.95987 c 15.95,-1.89 13.02,11.77 13,22.56 -0.01,2.99 0.3,6.17 -1.6,8.7 -4.05,5.37 -8.75,2.79 -17.31,8.48 -2.94,1.96 -6.54,5.96 -4.96,9.78 1.38,3.34 6.71,6.3 9.91,7.71 5.34,2.34 15.25,5.45 20.96,6.81 l 6,1.15 26,7.33 c 17.56,6.26 35.97,19.75 36,40.04 v 12 c -0.1,5.48 -0.57,5.17 -2.41,10 -5.48,14.34 -11.3,18.78 -24.59,25.42 -3.29,1.64 -6.4,3.58 -10,4.45 -9.95,2.39 -26.7,8.43 -27,-7.87 v -13 c 0.26,-14.02 13.24,-10.26 21.96,-15.85 4.22,-2.7 8.39,-9.08 5.17,-13.94 -2.3,-3.48 -7.41,-5.51 -11.13,-7 -7.48,-3 -15.13,-5.1 -23,-6.87 l -9,-2.58 -7,-1.31 c -11.37,-2.92 -29.640001,-10.96 -37.530001,-19.62 -4.85,-5.32 -7.03,-10.05 -8.89,-16.83 -1.66,-6.01 -1.65,-6.77 -1.58,-13 0.17,-14.06 7.43,-27.38 19.010001,-35.31 8.95,-6.13 17.39,-9.21 27.99,-11.25 z m 137,0.3 c 4.55,-1.1 9.33,-0.76 14,-0.74 2.86,0.01 6.31,-0.08 8.9,1.31 8.45,4.56 6.1,23.21 6.1,31.69 0,7.57 1.48,18.98 -4.27,24.66 -4.53,4.47 -12.73,3.44 -18.73,3.34 -5.14,-0.1 -9,-1.33 -11.72,-6.09 -1.9,-3.3 -2.23,-7.19 -2.28,-10.91 v -25 c 0.01,-4.51 0.04,-8.89 2.28,-12.98 1.65,-3.03 2.82,-3.72 5.72,-5.28 z m 205,64.26 -27.88,35.09 c -3.44,4.7 -9.83,13.72 -16.12,14.35 -3.05,0.31 -5.8,-1.84 -7.96,-3.74 -5.68,-4.99 -9.49,-11.67 -13.95,-17.66 l -43.01,-57.04 c -4.24,-5.81 -15.29,-17.4 -15.97,-24 -1.52,-14.79 14.21,-12.05 23.89,-12 11.05,0.06 12.27,4.75 18.65,13 l 14,18 c 4.53,5.94 20.06,25.93 22.35,31 5.56,-2.87 7.7,-8.15 11.43,-13 l 24.93,-33.09 c 7.68,-9.93 7.64,-15.89 21.64,-15.91 8.13,-0.01 20.75,-2.29 23.89,8 0.19,1.85 0.11,5.02 0,7 v 116 23 c 0.04,3.78 -0.3,6.79 -3.37,9.44 -2.82,2.43 -6.99,2.51 -10.52,2.56 h -8 c -11.72,-0.15 -13.87,-5.16 -14,-16 z m 123,49 v 38 c -0.19,15.44 -10.02,14.14 -22,14 -3.53,-0.05 -7.7,-0.13 -10.52,-2.56 -3.67,-3.17 -3.47,-7.04 -3.48,-11.44 v -60 c 0.02,-11.13 3.35,-12.98 14,-13 h 58 c 8.02,-0.1 17.45,-2.4 22.58,-9.02 10.4,-13.39 2.06,-33.73 -18.58,-33.98 h -62 c -8.28,-0.12 -13.83,-3.06 -14,-12 v -11 c 0.07,-10.91 5.11,-12.98 15,-13 h 50 c 16.88,0 31.12,-0.71 46,9.24 33.25,22.26 33.09,76.38 -2,96.59 -7.49,4.31 -19.36,8.13 -28,8.17 z m 144.09,-113.37 c 3.83,-0.77 18.4,-1.2 21.74,0 1.79,0.75 3.44,2.12 4.52,3.7 2.55,3.72 2.64,10.28 2.65,14.67 v 128 c -0.01,6.42 0.07,15.32 -7.02,18.11 -2.58,1.02 -6.21,0.89 -8.98,0.89 h -6 c -12.55,-0.15 -14.98,-5.29 -15,-17 v -111 c 0,-5.72 -0.63,-25.91 0.89,-30 1.43,-3.84 3.54,-5.87 7.2,-7.37 z m 151.91,0.11 c 5.99,-1.45 28.35,-0.74 36,-0.74 h 70 c 10.87997,0.06 13.94997,3.38 13.99997,14 0.03,6.82 1.76,18.18 -6.02,21.26 -2.19,0.87 -5.59997,0.74 -7.97997,0.74 h -99 c -3.95,-0.01 -7.49,0.28 -10.57,-2.72 -3.07,-2.99 -3.38,-9.22 -3.43,-13.28 -0.09,-8.06 -1.09,-14.89 7,-19.26 z m 263.99997,109.26 c -1.87,7.68 -0.98,32.54 -1,42 -0.01,4.4 0.19,8.27 -3.48,11.44 -3.24,2.8 -8.49,2.55 -12.52,2.56 -6.91,0.01 -16.37,1.09 -19.4,-7 -0.71,-1.91 -0.6,-4.94 -0.6,-7 v -64 c 0.09,-13.68 8.73,-13.98 20,-14 h 54 c 7.79,-0.09 18.24,-1.26 23.78,-7.17 6.46,-6.9 5.11,-18.48 -1.83,-24.56 -5.41,-4.73 -11.99,-6.24 -18.95,-6.27 h -53 c -7.3,0 -16.16,1.54 -21.57,-4.47 -3.51,-3.89 -2.5,-13.39 -2.43,-18.53 0.15,-10.84 5.23,-12.98 15,-13 h 52 c 17.31,0 29.06,-1.5 45,7.43 22.62,12.67 31.76,37.99 25.01,62.57 -1.38,5.03 -2.84,10.14 -5.71,14.58 -4.78,7.36 -13.58,13.47 -21.3,17.42 2.5,6.33 18.03,28.78 22.83,36 3.14,4.71 8.99,12.27 8.96,18 -0.05,12.15 -14.61,10.01 -22.79,10 -3.82,-0.01 -9.35,0.07 -12.63,-2.14 -2.97,-2 -7.8,-10.42 -9.77,-13.77 l -14.45,-23.09 c -5.34,-8.54 -7.15,-15.93 -18.15,-16 -7.81,-0.05 -19.81,0.75 -27,-1 z m 152.09,-109.28 c 5.84,-1.42 28.38,-0.72 35.91,-0.72 h 71 c 10.84,0.06 13.87,4.45 14,15 0.07,6.11 0.83,17.43 -6.05,20.26 -2.12,0.87 -5.64,0.74 -7.95,0.74 h -87 c -10.23,0 -25.73,3.6 -26,-11 -0.07,-3.92 -0.54,-16.8 0.93,-19.7 1.23,-2.41 2.91,-3.36 5.16,-4.58 z m 225.91,109.28 c 1.45,-7.08 4.89,-13.28 7.36,-20 l 19.08,-49 6.51,-16 c 2.1,-5.94 7.03,-20.02 12.07,-23.26 2.64,-1.71 4.97,-1.7 7.98,-1.6 h 12 c 1.85,-0.14 5.2,-0.22 6.9,0 3.8,1.44 7.04,6.99 6.72,10.86 l -10.64,28 -38.19,94 -6.99,17 c -2.45,6.45 -4.29,13.74 -10.8,17.23 -4.46,2.39 -11.91,1.83 -17,1.77 -10.81,-0.13 -13.48,-3.74 -17.42,-13 l -6.75,-17 -32.02,-79 -9.17,-22 -10.15,-27 c -0.47,-4.51 3.26,-9.37 7.52,-10.86 1.81,-0.22 5.04,-0.14 6.99,0 h 64 c 9.56,-0.12 13.86,2.69 14,12.86 0.06,4.7 0.76,15.02 -1.85,18.7 -2.61,3.67 -5.99,4.22 -10.15,4.3 h -31 l 17.79,44 11.21,30 z m 118.17,-109.33 c 3.7,-0.88 19.45,-1.32 22.83,0 2.18,0.74 4.13,2.42 5.4,4.35 1.86,2.82 1.59,5.77 1.6,8.98 v 34 c -0.21,15.22 -11.84,13.15 -23,13 -8.31,-0.12 -12.84,-3.29 -13,-12 v -36 c 0.04,-6.11 0.67,-8.91 6.17,-12.33 z m 72,0.07 c 5.04,-1.3 18.01,-0.82 23.83,-0.74 3.98,0.06 6.29,0.06 9,3.23 5.38,5.8 5.91,25.11 0,30.46 -3.12,2.62 -6.32,2.3 -10,2.31 -5.29,0.01 -20.87,1.06 -24.7,-1.51 -6.57,-4.41 -6.67,-22.05 -3.35,-28.47 1.44,-2.81 2.64,-3.71 5.22,-5.28 z m 82.83,35.26 v 57 60 c -0.22,15.77 -10.65,16.16 -23,16 -4.29,-0.06 -7.43,-0.43 -10.73,-3.53 -4.21,-3.96 -4.26,-9.16 -4.27,-14.47 v -116 c 0,-8.69 -2.47,-29.23 6.05,-33.83 2.56,-1.38 6.1,-1.17 8.95,-1.17 h 59 c 4.42,0.01 8.38,-0.33 11.69,3.23 3.54,3.8 3.33,10.87 3.31,15.77 -0.04,10.2 -1.16,16.92 -13,17 z m -1646.97997,-33.98 c 6.87,-2.31 8.68,-0.04 14.98,1.46 l 7,1.48 c 11.63,4.12 24.53,14.53 29.41,26.04 3.82,9.03 9.71,24.84 -3.41,29.3 -1.98,0.67 -3.94,0.67 -6,0.7 h -9 c -15.41,-0.1 -10.35,-9.96 -18.19,-17.87 -4.78,-4.82 -13.47,-6.61 -16.95,-9.93 -4.28,-4.09 -2.9,-14.52 -2.86,-20.2 0.01,-1.85 -0.05,-4.26 0.6,-6 1.02,-2.72 2.22,-3.39 4.42,-4.98 z m 107.98,63.72 c 6.59,-1.6 21.53,-2.2 26.03,3.59 4.24,5.44 2.97,16.86 2.97,23.67 v 57 c -0.02,12.16 -2.5,15.94 -15,16 h -7 c -13.33,-0.16 -14.98,-5.88 -15,-18 v -66 c 0.09,-7.19 1.26,-12.63 8,-16.26 z m 624,0.11 c 6.03,-1.65 25.56,-0.85 33,-0.85 h 64 c 9.58,0.13 13.86997,4.42 13.99997,14 0.08,6.43 1.17,18.19 -6.09997,21.26 -2.07,0.88 -5.62,0.74 -7.9,0.74 h -90 c -3.68,-0.01 -7.8,0.32 -10.69,-2.43 -3.21,-3.07 -3.29,-9.4 -3.31,-13.57 -0.04,-8.25 -1.2,-14.6 7,-19.15 z m 415.99997,0.08 c 6,-1.8 24.65,-0.93 32,-0.93 h 64 c 5.42,0.01 9.49,-0.07 13.35,4.47 3.45,4.05 3.49,18.44 2.08,23.53 -0.63,2.3 -2,4.78 -3.91,6.26 -2.66,2.07 -6.33,1.73 -9.52,1.74 h -91 c -3.66,-0.01 -7.48,0.42 -10.28,-2.43 -4.08,-4.16 -2.82,-16.79 -2.72,-22.57 0.04,-2 0,-4.02 1.02,-5.83 1.26,-2.22 2.91,-3.03 4.98,-4.24 z m 345,-0.21 c 6.53,-1.53 22.88,-2.2 27.26,3.61 2.05,2.72 1.73,6.44 1.74,9.67 v 73 c -0.02,11.25 -2.59,13.94 -14,14 h -9 c -10.27,-0.13 -12.98,-2.96 -13,-13 v -63 c 0,-3.98 -0.65,-16.86 1.02,-19.7 1.39,-2.37 3.64,-3.44 5.98,-4.58 z m -1566.909971,39.01 c 3.97,-0.98 19.290001,-1.4 22.910001,0 1.85,0.73 3.25,1.83 4.49,3.38 3.66,4.55 3.5,11.57 8.64,16.59 7.91,7.72 16.42,6.06 20.13,10.69 2.63,3.28 1.75,15.09 1.74,19.61 0,2.3 0.21,5.74 -1.02,7.73 -4.15,6.67 -17.06,2.83 -22.98,0.84 -19.370001,-6.51 -31.080001,-15.72 -37.590001,-35.57 -2.7,-8.25 -5.64,-18.23 3.68,-23.27 z m 271.910001,0.8 c 3.36,-0.55 5.62,-0.57 9,-0.53 2.74,0.04 4.34,0.05 7,0.95 8.75,2.98 9.99,8.72 10,17.05 v 16 c 0,7.47 1.56,19.09 -4.53,24.44 -3.83,3.36 -13.45,2.62 -18.47,2.56 -4.69,-0.06 -9.31,-0.39 -11.83,-5.05 -1.28,-2.38 -1.16,-5.33 -1.17,-7.95 v -28 c 0,-3.29 -0.34,-11.07 0.87,-13.79 1.55,-3.48 5.79,-4.69 9.13,-5.68 z m 430,25.1 43,-0.63 c 4.8,0.01 9.56,0.2 13.61,3.19 6.15,4.52 6.03,25.14 0.74,30.25 -2.91,2.82 -8.56,2.55 -12.35,2.56 h -40 c -4.36,-0.02 -8.39,0.05 -11.72,-3.28 -1.37,-1.36 -2.18,-2.88 -2.71,-4.72 -1.17,-4.06 -1.17,-19.4 1.28,-22.73 1.85,-2.5 5.34,-3.64 8.15,-4.64 z m 107,-0.1 35,-0.53 h 65 c 4.78,0.01 11.82997,0.44 15.14997,4.49 1.85,2.27 1.81,5.73 1.85,8.51 0.09,7.63 2.28,19.73 -7,22.43 -2.25997,0.65 -5.61997,0.57 -7.99997,0.57 h -96 c -4.3,-0.01 -10.24,0.28 -13.36,-3.3 -3.74,-4.45 -3.83,-23.85 0,-28.31 1.83,-2.22 4.69,-3.06 7.36,-3.86 z m 415.99997,0.1 35,-0.63 h 66 c 5.09,0.01 10.69,0.12 14.3,4.39 4.08,4.81 4.09,24.75 -0.69,29.1 -3.1,2.82 -7.71,2.5 -11.61,2.51 h -86 c -10.1,0 -25.73,3.36 -26,-11 -0.07,-3.79 -0.62,-17.07 1.02,-19.73 1.54,-2.49 5.36,-3.7 7.98,-4.64 z"
       style="display:inline;fill:#f4eed7;fill-opacity:1" />
  </g>
</svg>
