<svg xml:space="preserve" viewBox="259.0704647676162 414 683.6581709145428 72" version="1.1" xmlns:xlink="http://www.w3.org/1999/xlink" xmlns="http://www.w3.org/2000/svg" style="max-height: 500px" width="683.6581709145428" height="72">
<desc>Created with Fabric.js 5.2.4</desc>
<defs>
</defs>
<g id="2362ba06-58cf-4b5a-aa39-c70f435ff795" transform="matrix(1 0 0 1 600 450)">
<rect height="900" width="1200" ry="0" rx="0" y="-450" x="-600" style="stroke: none; stroke-width: 1; stroke-dasharray: none; stroke-linecap: butt; stroke-dashoffset: 0; stroke-linejoin: miter; stroke-miterlimit: 4; fill: rgb(255,255,255); fill-rule: nonzero; opacity: 1; visibility: hidden;"/>
</g>
<g id="9100c45a-8c54-408d-9787-b5dd1fe4dbd4" transform="matrix(Infinity NaN NaN Infinity 0 0)">
</g>
<g transform="matrix(0.01 0 0 0.01 600 450)">
<g style="">
		<g id="path1" transform="matrix(37.8 0 0 37.8 8346.78 -49.2)">
<path stroke-linecap="round" d="M 1122.1175 232.46288 C 1120.2506 231.45006 1118.4115000000002 229.37917000000002 1118.0321000000001 227.86152 C 1117.6511 226.34387 1117.5082000000002 208.23875 1117.7066000000002 187.62777 C 1118.0400000000002 153.61472 1118.2781000000002 149.94886 1120.2839000000001 147.94028 C 1122.2810000000002 145.94241 1126.2585000000001 145.66063 1161.2117 145.04389 C 1202.9554 144.3057 1207.8051 143.63022 1214.2102 137.64693 C 1221.2064 131.11199 1220.6245 118.7795 1212.9768 111.50453999999999 C 1205.8997 104.77274999999999 1201.6798999999999 104.17981999999999 1160.8352 104.17981999999999 L 1124.7021 104.17981999999999 L 1121.077 100.55476999999999 C 1117.6766 97.15434199999999 1117.452 96.31614199999999 1117.452 87.049589 C 1117.452 79.172416 1117.9362 76.57629899999999 1119.8213 74.241801 L 1122.1907 71.31365799999999 L 1163.4176000000002 70.956471 C 1190.0837000000001 70.72628399999999 1206.9738000000002 71.08347099999999 1211.2396000000003 71.96691399999999 C 1227.3241000000003 75.30621999999998 1242.0786000000003 86.754314 1249.0069000000003 101.27112 C 1256.2467000000004 116.44111 1255.0783000000004 139.34332999999998 1246.3629000000003 153.08568 C 1243.2943000000002 157.92517 1230.6467000000002 168.76915 1226.4344000000003 170.17329 C 1223.9507000000003 171.00117 1226.3684000000003 175.53983 1241.5629000000004 198.57350000000002 C 1252.6623000000004 215.39972000000003 1256.3526000000004 221.97840000000002 1256.3384000000003 224.91329000000002 C 1256.3014000000003 232.46423000000001 1252.6546000000003 234.40630000000002 1238.5138000000004 234.40630000000002 C 1222.5999000000004 234.40630000000002 1224.1374000000003 235.65884000000003 1208.0576000000003 209.60162000000003 C 1192.3804000000002 184.19710000000003 1192.0700000000004 183.74339000000003 1189.0770000000002 181.85276000000002 C 1187.1426000000001 180.63118000000003 1181.0674000000001 179.92554 1169.3188000000002 179.55883000000003 C 1152.9752000000003 179.05083000000002 1152.3282000000002 179.12226000000004 1151.6624000000002 181.60273000000004 C 1151.2814 183.01799000000003 1150.9639000000002 194.10794000000004 1150.9559000000002 206.24668000000003 C 1150.9389 228.01550000000003 1150.8979000000002 228.35888000000003 1147.8952000000002 231.36148000000003 C 1145.1727 234.08404000000002 1143.8296000000003 234.40074000000004 1135.1828000000003 234.35629000000003 C 1129.0685000000003 234.32489000000004 1124.2666000000004 233.62604000000002 1122.1197000000002 232.46479000000002 z" transform="translate(-1186.9, -152.65)" style="stroke: none; stroke-width: 1.24023; stroke-dasharray: none; stroke-linecap: butt; stroke-dashoffset: 0; stroke-linejoin: miter; stroke-miterlimit: 4; fill: rgb(255,246,213); fill-rule: nonzero; opacity: 1;"/>
</g>
		<g id="path2" transform="matrix(37.8 0 0 37.8 14816.56 -57.24)">
<path stroke-linecap="round" d="M 1305.1609 168.69985 C 1301.3890000000001 167.14885999999998 1299.4149 159.99877 1299.9825 149.94862 C 1300.3714 143.12158 1301.0342 140.80629000000002 1303.2495000000001 138.58967 C 1306.0277 135.80996000000002 1306.1158 135.80519 1355.5212000000001 135.44245 C 1412.6668000000002 135.02176 1412.7275000000002 135.02970000000002 1415.1612000000002 144.06980000000001 C 1417.3265000000001 152.11159 1416.1724000000002 163.19615000000002 1412.8204000000003 166.54958000000002 C 1410.0891000000004 169.28167000000002 1409.8923000000002 169.29278000000002 1358.9528000000003 169.54440000000002 C 1330.8334000000002 169.67934000000002 1306.6269000000002 169.30628000000002 1305.1606000000002 168.69985000000003 z" transform="translate(-1358.07, -152.44)" style="stroke: none; stroke-width: 1.24023; stroke-dasharray: none; stroke-linecap: butt; stroke-dashoffset: 0; stroke-linejoin: miter; stroke-miterlimit: 4; fill: rgb(255,246,213); fill-rule: nonzero; opacity: 1;"/>
</g>
		<g id="path3" transform="matrix(37.8 0 0 37.8 14979.91 -2513.78)">
<path stroke-linecap="round" d="M 1303.5551 101.76833 C 1300.4317 98.644924 1299.272 92.177451 1300.1325 82.686267 C 1301.2906 69.915071 1297.325 70.693343 1361.2357 70.693343 C 1399.4672 70.693343 1417.1678 71.121968 1419.3055 72.094311 C 1423.7862 74.13583600000001 1425.3713 79.203134 1424.8372 89.775008 C 1424.0434 105.4241 1429.4052 104.1795 1362.8247 104.1795 C 1308.1634999999999 104.1795 1305.8728999999998 104.08420000000001 1303.5548 101.76809 z" transform="translate(-1362.4, -87.44)" style="stroke: none; stroke-width: 1.24023; stroke-dasharray: none; stroke-linecap: butt; stroke-dashoffset: 0; stroke-linejoin: miter; stroke-miterlimit: 4; fill: rgb(255,246,213); fill-rule: nonzero; opacity: 1;"/>
</g>
		<g id="path4" transform="matrix(37.8 0 0 37.8 14968.44 2407.47)">
<path stroke-linecap="round" d="M 1305.1017 232.91977 C 1300.4225999999999 230.65917 1298.3533 219.45204999999999 1300.5685999999998 208.37464 C 1302.0298999999998 201.06976 1303.3133999999998 200.91816 1363.5285999999999 200.91816 L 1417.4494 200.91816 L 1420.9292 203.91139 C 1424.2717 206.78635 1424.409 207.35309 1424.409 218.28366 C 1424.409 235.80544 1429.6930000000002 234.42138 1363.1901 234.3205 C 1326.8485 234.2654 1306.8908000000001 233.78075 1305.102 232.92032 z" transform="translate(-1362.09, -217.65)" style="stroke: none; stroke-width: 1.24023; stroke-dasharray: none; stroke-linecap: butt; stroke-dashoffset: 0; stroke-linejoin: miter; stroke-miterlimit: 4; fill: rgb(255,246,213); fill-rule: nonzero; opacity: 1;"/>
</g>
		<g id="path5" transform="matrix(37.8 0 0 37.8 21331.48 -0.27)">
<path stroke-linecap="round" d="M 1524.628 236.86034 C 1515.1182999999999 235.89831 1513.1785 233.38133000000002 1503.7388999999998 209.75545 C 1499.2081999999998 198.41459 1488.2146999999998 171.27627999999999 1479.3097999999998 149.44817 C 1458.4759999999997 98.379336 1452.3140999999998 82.264786 1452.3140999999998 78.850233 C 1452.3140999999998 77.330202 1453.6055 74.872753 1455.1843 73.390028 C 1458.0052999999998 70.740492 1458.7268 70.69366 1496.7884999999999 70.69366 L 1535.5221999999999 70.69366 L 1538.5663 73.737691 C 1541.3499 76.521371 1541.6103 77.742952 1541.6103 88.000422 C 1541.6103 104.24396 1541.7053 104.17982 1518.0458 104.17982 C 1507.1149 104.17982 1499.4423000000002 104.66401 1499.4423000000002 105.35854 C 1499.4423000000002 106.00941 1504.3723000000002 118.98294 1510.3973 134.19396 C 1516.4227 149.40506 1522.9156 166.17581 1524.8261 171.46226000000001 C 1528.2369 180.90026 1530.9428 183.52567000000002 1532.4953 178.90366 C 1533.7312 175.22305 1567.8928 87.764202 1570.2896 82.14389800000001 C 1571.5310000000002 79.23321800000001 1573.9321 75.466081 1575.626 73.772298 C 1578.493 70.905274 1579.5574 70.69334300000001 1591.0738 70.69334300000001 C 1602.9587 70.69334300000001 1603.543 70.82034300000001 1606.0129 73.96121100000002 C 1607.4266 75.75826000000002 1608.5830999999998 77.96647200000002 1608.5830999999998 78.86658400000002 C 1608.5830999999998 83.38302100000001 1549.3760999999997 228.9276 1545.8902999999998 232.98017000000002 C 1542.8739999999998 236.48696 1535.0521999999999 237.91412000000003 1524.6274999999998 236.86002000000002 z" transform="translate(-1530.45, -153.95)" style="stroke: none; stroke-width: 1.24023; stroke-dasharray: none; stroke-linecap: butt; stroke-dashoffset: 0; stroke-linejoin: miter; stroke-miterlimit: 4; fill: rgb(255,246,213); fill-rule: nonzero; opacity: 1;"/>
</g>
		<g id="path6" transform="matrix(37.8 0 0 37.8 26276.79 1166.97)">
<path stroke-linecap="round" d="M 1648.8911 232.92223 C 1647.5267000000001 232.15229000000002 1646.0003000000002 230.91007000000002 1645.4994000000002 230.1695 C 1644.9994000000002 229.43132 1644.5795 208.88383 1644.5692000000001 184.51349 L 1644.5502000000001 140.20368 L 1647.6688000000001 138.16056999999998 C 1654.0704 133.96639 1671.1253000000002 134.47598 1675.6456 138.99558999999996 C 1677.9157 141.26571999999996 1678.0363 143.58187999999996 1678.0363 184.85122999999996 L 1678.0363 228.31577999999996 L 1674.9923 231.35980999999995 C 1672.242 234.11014999999995 1670.9560999999999 234.40066999999996 1661.6598 234.36652999999995 C 1656.0011 234.34582999999995 1650.2552999999998 233.69977999999995 1648.8909999999998 232.92190999999997 z" transform="translate(-1661.29, -184.83)" style="stroke: none; stroke-width: 1.24023; stroke-dasharray: none; stroke-linecap: butt; stroke-dashoffset: 0; stroke-linejoin: miter; stroke-miterlimit: 4; fill: rgb(255,246,213); fill-rule: nonzero; opacity: 1;"/>
</g>
		<g id="path7" transform="matrix(37.8 0 0 37.8 26279.64 -2045.27)">
<path stroke-linecap="round" d="M 1647.5945 125.94015 C 1644.5774999999999 122.92311000000001 1644.5504999999998 122.68737 1644.5504999999998 99.4913 C 1644.5504999999998 76.630274 1644.6174999999998 76.024008 1647.4207 73.390028 C 1649.9154999999998 71.046085 1651.7085 70.69366 1661.1197 70.69366 C 1671.0337 70.69366 1672.2115999999999 70.955598 1675.0673 73.813097 L 1678.1868 76.932534 L 1677.7978 100.5904 C 1677.4248 123.73845 1677.3533 124.29923 1674.4847 126.61667 C 1672.1200999999999 128.52881 1669.5428 128.98522 1661.0958 128.98522 C 1651.6428 128.98522 1650.3415 128.69153 1647.5906 125.94118999999999 z" transform="translate(-1661.37, -99.84)" style="stroke: none; stroke-width: 1.24023; stroke-dasharray: none; stroke-linecap: butt; stroke-dashoffset: 0; stroke-linejoin: miter; stroke-miterlimit: 4; fill: rgb(255,246,213); fill-rule: nonzero; opacity: 1;"/>
</g>
		<g id="path8" transform="matrix(37.8 0 0 37.8 29110.6 -2511.12)">
<path stroke-linecap="round" d="M 1719.0615 101.51766 C 1714.2871 96.39242100000001 1714.0735 80.718323 1718.6963 74.52143900000002 C 1720.9982 71.43375300000001 1721.6292 71.30040300000002 1735.4913000000001 70.96464700000001 C 1748.429 70.64714700000002 1750.1422000000002 70.86145900000001 1752.3332 73.05459000000002 C 1758.7363 79.45776900000001 1758.8348 99.52424000000002 1752.476 102.92514000000003 C 1751.1862 103.61570000000003 1743.6982 104.18006000000003 1735.8354000000002 104.18006000000003 C 1722.8117000000002 104.18006000000003 1721.3188000000002 103.94193000000003 1719.0595 101.51782000000003 z" transform="translate(-1736.27, -87.51)" style="stroke: none; stroke-width: 1.24023; stroke-dasharray: none; stroke-linecap: butt; stroke-dashoffset: 0; stroke-linejoin: miter; stroke-miterlimit: 4; fill: rgb(255,246,213); fill-rule: nonzero; opacity: 1;"/>
</g>
		<g id="path9" transform="matrix(37.8 0 0 37.8 31938.38 -3.11)">
<path stroke-linecap="round" d="M 1771.4335 233.89147 L 1767.9537 230.89824 L 1767.9537 154.60737999999998 C 1767.9537 78.95532599999997 1767.9757 78.28722699999997 1770.5675 74.81496799999998 L 1773.1813000000002 71.31373799999997 L 1809.6351000000002 70.97242499999997 C 1849.2379 70.59936299999997 1850.6005000000002 70.79779999999997 1852.8507000000002 77.25654199999997 C 1855.8233000000002 85.78387599999996 1853.6960000000001 100.52690999999997 1849.1407000000002 102.96474999999997 C 1847.8929 103.63149999999996 1837.0882000000001 104.17838999999996 1825.1302 104.17838999999996 L 1803.3882 104.17838999999996 L 1803.0310000000002 166.50012999999996 C 1802.65 233.57412999999997 1802.7532 232.55844999999994 1796.1746000000003 235.55493999999996 C 1794.5712000000003 236.28518999999997 1789.1308000000004 236.88366999999997 1784.0847000000003 236.88366999999997 C 1776.1749000000004 236.88366999999997 1774.4308000000003 236.47091999999998 1771.4306000000004 233.89043999999996 z" transform="translate(-1811.09, -153.87)" style="stroke: none; stroke-width: 1.24023; stroke-dasharray: none; stroke-linecap: butt; stroke-dashoffset: 0; stroke-linejoin: miter; stroke-miterlimit: 4; fill: rgb(255,246,213); fill-rule: nonzero; opacity: 1;"/>
</g>
		<g id="path10" transform="matrix(37.8 0 0 37.8 -947.1 -51.59)">
<path stroke-linecap="round" d="M 889.03429 168.50276 C 884.89409 166.98669999999998 883.04704 161.98846 883.04704 152.30209 C 883.04704 142.45523 885.4243200000001 138.12341999999998 891.76408 136.41621999999998 C 895.04544 135.53277999999997 913.0126 135.2002 944.4389 135.4407 L 992.13406 135.80583 L 995.55512 139.22848 C 998.7086899999999 142.38362999999998 998.9730099999999 143.40122 998.93967 152.2509 C 998.89897 162.86595 997.34106 166.94852 992.65158 168.73152 C 988.50186 170.30949999999999 893.3945199999999 170.09914999999998 889.03469 168.50134 z" transform="translate(-940.99, -152.59)" style="stroke: none; stroke-width: 1.24023; stroke-dasharray: none; stroke-linecap: butt; stroke-dashoffset: 0; stroke-linejoin: miter; stroke-miterlimit: 4; fill: rgb(255,246,213); fill-rule: nonzero; opacity: 1;"/>
</g>
		<g id="path11" transform="matrix(37.8 0 0 37.8 -777.64 -2514.66)">
<path stroke-linecap="round" d="M 886.85672 101.78857 C 884.027 98.958852 882.48316 90.195378 883.392 82.128499 C 883.8682500000001 77.8994 884.9334600000001 75.589588 887.3766300000001 73.488612 L 890.7103800000001 70.620794 L 946.9863600000001 70.970044 C 999.0769900000001 71.287544 1003.4271000000001 71.478044 1005.4762000000001 73.529887 C 1007.2859000000001 75.338843 1007.69 77.862967 1007.69 87.34899200000001 C 1007.69 105.81598000000001 1013.6661 104.18244000000001 946.10617 104.18244000000001 C 891.6099300000001 104.18244000000001 889.14828 104.07925000000002 886.8565600000001 101.79167000000001 z" transform="translate(-945.48, -87.42)" style="stroke: none; stroke-width: 1.24023; stroke-dasharray: none; stroke-linecap: butt; stroke-dashoffset: 0; stroke-linejoin: miter; stroke-miterlimit: 4; fill: rgb(255,246,213); fill-rule: nonzero; opacity: 1;"/>
</g>
		<g id="path12" transform="matrix(37.8 0 0 37.8 -767.15 2410.12)">
<path stroke-linecap="round" d="M 888.44224 233.17146 C 884.6195399999999 231.62921 882.6161099999999 224.37886 883.3797 214.8568 C 884.5227 200.61525999999998 880.14041 201.59578 944.4611299999999 201.19089 C 992.0400799999999 200.88926 1000.1122999999999 201.10359 1003.2830999999999 202.74426 C 1007.6844999999998 205.02073 1008.8385999999999 209.55622 1008.0733999999999 221.57319 C 1007.2002999999999 235.28411 1011.3849999999999 234.41781 946.4708999999999 234.32566 C 916.02123 234.28236 889.9081299999999 233.76209 888.4419199999999 233.17154 z" transform="translate(-945.76, -217.72)" style="stroke: none; stroke-width: 1.24023; stroke-dasharray: none; stroke-linecap: butt; stroke-dashoffset: 0; stroke-linejoin: miter; stroke-miterlimit: 4; fill: rgb(255,246,213); fill-rule: nonzero; opacity: 1;"/>
</g>
		<g id="path13" transform="matrix(37.8 0 0 37.8 -8249.68 -54.43)">
<path stroke-linecap="round" d="M 737.14178 233.17448 C 730.31474 230.41938 730.49809 232.65061 730.49809 152.17739 L 730.49809 77.94393 L 734.12315 74.318874 C 737.55453 70.88749399999999 738.30542 70.69381899999999 748.16966 70.69381899999999 C 757.76792 70.69381899999999 758.82829 70.947819 761.59761 73.893425 L 764.60433 77.09303 L 764.97739 148.61743 C 765.18377 187.9559 765.00399 222.01809000000003 764.58846 224.31123000000002 C 764.16777 226.60438000000002 762.4937500000001 229.81351000000004 760.8649800000001 231.44228 C 758.2646500000001 234.04260000000002 756.7970100000001 234.39503000000002 748.85491 234.32597 C 743.87809 234.28267000000002 738.61085 233.76241000000002 737.149 233.17504000000002 z" transform="translate(-747.78, -152.51)" style="stroke: none; stroke-width: 1.24023; stroke-dasharray: none; stroke-linecap: butt; stroke-dashoffset: 0; stroke-linejoin: miter; stroke-miterlimit: 4; fill: rgb(255,246,213); fill-rule: nonzero; opacity: 1;"/>
</g>
		<g id="path14" transform="matrix(37.8 0 0 37.8 -5870.5 2418.19)">
<path stroke-linecap="round" d="M 781.79901 232.95366 C 777.8921799999999 231.06136 776.3864299999999 226.63938000000002 776.3864299999999 217.05176 C 776.3864299999999 209.79688 776.8388699999999 207.96896 779.3796699999999 205.01787000000002 L 782.3729 201.53807 L 810.35115 201.53807 C 837.2954599999999 201.53807 838.42751 201.63327 840.98632 204.19476 C 846.4822399999999 209.69068000000001 846.41953 227.68626 840.89112 232.16507000000001 C 838.40827 234.17564000000002 835.38884 234.39551 811.28854 234.32010000000002 C 795.52244 234.27080000000004 783.35807 233.70891000000003 781.80184 232.95326000000003 z" transform="translate(-810.73, -217.94)" style="stroke: none; stroke-width: 1.24023; stroke-dasharray: none; stroke-linecap: butt; stroke-dashoffset: 0; stroke-linejoin: miter; stroke-miterlimit: 4; fill: rgb(255,246,213); fill-rule: nonzero; opacity: 1;"/>
</g>
		<g id="path15" transform="matrix(37.8 0 0 37.8 -12896.99 -58.37)">
<path stroke-linecap="round" d="M 563.35828 233.17948 C 561.8136400000001 232.52861000000001 559.9761100000001 230.48153000000002 559.2752300000001 228.63685 C 557.3043500000001 223.45287000000002 558.2632000000001 154.3718 560.3348900000001 152.29852 C 561.5540900000001 151.07773 571.1664700000001 150.52925 600.0223800000001 150.03316 C 632.7360600000001 149.4696 638.7931600000002 149.07113 643.0162300000001 147.1955 C 649.3249500000001 144.39357 652.06649 141.86468000000002 654.9758200000001 136.16468 C 659.3819200000002 127.53146000000001 656.5752200000001 114.7836 649.0973100000001 109.46834000000001 C 642.5615700000001 104.82252000000001 636.8630800000001 104.19308000000001 601.2621300000001 104.18593000000001 C 578.7376600000001 104.18093000000002 565.8631100000001 103.70175000000002 563.88184 102.80243000000002 C 559.66702 100.88155000000002 558.10572 96.69690400000002 558.10572 87.31628900000001 C 558.10572 78.13665200000001 560.35997 72.61485200000001 564.56764 71.48780700000002 C 569.31743 70.21542600000002 640.40281 70.60595100000002 647.4529699999999 71.94024400000002 C 675.9547799999999 77.34568100000003 695.45031 105.82598000000002 690.86744 135.36323000000002 C 687.34636 158.05638000000002 672.37878 174.47922 649.7210299999999 180.50982000000002 C 644.97759 181.77267 635.6600699999999 182.28623000000002 617.3273099999999 182.29655000000002 L 591.5924399999999 182.31125000000003 L 591.5924399999999 205.11822000000004 C 591.5924399999999 233.88602000000003 591.7194399999998 233.64313000000004 576.5091999999999 234.07310000000004 C 570.8211899999999 234.23185000000004 564.9037899999998 233.82704000000004 563.3590699999999 233.17617000000004 z" transform="translate(-624.82, -152.41)" style="stroke: none; stroke-width: 1.24023; stroke-dasharray: none; stroke-linecap: butt; stroke-dashoffset: 0; stroke-linejoin: miter; stroke-miterlimit: 4; fill: rgb(255,246,213); fill-rule: nonzero; opacity: 1;"/>
</g>
		<g id="path16" transform="matrix(37.8 0 0 37.8 -20432.93 -54.39)">
<path stroke-linecap="round" d="M 476.6323 232.92286 C 475.13687999999996 232.20055 473.46286 230.70353999999998 472.912 229.59625999999997 C 472.36431 228.48897999999997 471.63009 206.09601999999998 471.28956999999997 179.83409999999998 L 470.67044999999996 132.08504999999997 L 453.46623999999997 153.78917999999996 C 434.24066999999997 178.04323999999997 430.03545999999994 182.31456999999995 425.38201999999995 182.31456999999995 C 420.89415999999994 182.31456999999995 418.36130999999995 179.37133999999995 387.49094999999994 138.28621999999996 C 372.62726999999995 118.50453999999996 357.97384999999997 99.24991999999996 354.92767999999995 95.49818299999995 C 349.35713999999996 88.63780299999995 346.02696999999995 82.36662399999996 346.02696999999995 78.73847299999996 C 346.02696999999995 77.66214899999996 347.3969799999999 75.41186799999996 349.07099999999997 73.73784999999995 C 351.84277 70.96607499999995 353.09133999999995 70.69461299999995 363.02369 70.70016899999995 C 371.27678 70.70506899999995 374.75269 71.23198199999995 377.30316999999997 72.87028099999995 C 380.37021999999996 74.83957399999994 410.45817999999997 113.03012999999996 419.54533999999995 126.48926999999995 C 421.62337999999994 129.56663999999995 423.46408999999994 132.26935999999995 423.63632999999993 132.49556999999996 C 424.9221999999999 134.18228999999997 431.21266999999995 126.84565999999995 448.87621999999993 103.06094999999996 C 460.0641299999999 87.99581799999996 470.3009599999999 74.68963499999997 471.62468999999993 73.49162799999996 C 473.59160999999995 71.71124799999997 476.36258999999995 71.31357899999996 486.7934899999999 71.31357899999996 C 506.8408299999999 71.31357899999996 504.7769199999999 62.03313599999996 504.7769199999999 152.17738999999995 L 504.7769199999999 228.31593999999996 L 501.7328899999999 231.35996999999995 C 499.0023999999999 234.08966999999996 497.6911199999999 234.39526999999995 489.0204399999999 234.31985999999995 C 483.70310999999987 234.27375999999995 478.1290799999999 233.64516999999995 476.6341299999999 232.92285999999996 z" transform="translate(-425.43, -152.51)" style="stroke: none; stroke-width: 1.24023; stroke-dasharray: none; stroke-linecap: butt; stroke-dashoffset: 0; stroke-linejoin: miter; stroke-miterlimit: 4; fill: rgb(255,246,213); fill-rule: nonzero; opacity: 1;"/>
</g>
		<g id="path17" transform="matrix(37.8 0 0 37.8 -22795.01 1939.06)">
<path stroke-linecap="round" d="M 349.06949 231.36005 C 346.0707 228.36126 346.02545999999995 227.99693 346.04213 206.86541 C 346.05113 195.06766 346.39931 184.13693999999998 346.82 182.57476 C 347.92331 178.45598999999999 353.48115 176.11284 362.14834 176.11284 C 370.1599 176.11284 376.1462 178.34328 378.14137 182.07073 C 378.79224 183.28754 379.50662 193.18783 379.72807 204.07204 C 380.29957 232.26436999999999 379.01370000000003 234.40352 361.41317 234.40352 C 353.19302 234.40352 351.75998 234.04634 349.06917 231.35949 z" transform="translate(-362.94, -205.26)" style="stroke: none; stroke-width: 1.24023; stroke-dasharray: none; stroke-linecap: butt; stroke-dashoffset: 0; stroke-linejoin: miter; stroke-miterlimit: 4; fill: rgb(255,246,213); fill-rule: nonzero; opacity: 1;"/>
</g>
		<g id="path18" transform="matrix(37.8 0 0 37.8 -26105.2 1165.39)">
<path stroke-linecap="round" d="M 264.16985 232.86682 C 262.46456 231.97146999999998 260.40310999999997 229.30051 259.58896 226.93036999999998 C 257.71945 221.48920999999999 257.40679 151.52049 259.22305 144.98307999999997 C 261.05589 138.38463999999996 264.35702 136.03553999999997 272.58813 135.47173999999998 C 281.5009 134.86055 289.00811 137.26084999999998 291.09242 141.38675999999998 C 292.26082 143.69895999999997 292.66325 155.09600999999998 292.67754 186.20782999999997 C 292.69964000000004 236.57251999999997 293.63718 233.58865999999998 277.61256000000003 234.13935999999998 C 270.8387 234.36954999999998 266.20146000000005 233.93299 264.17041 232.86697999999998 z" transform="translate(-275.35, -184.79)" style="stroke: none; stroke-width: 1.24023; stroke-dasharray: none; stroke-linecap: butt; stroke-dashoffset: 0; stroke-linejoin: miter; stroke-miterlimit: 4; fill: rgb(255,246,213); fill-rule: nonzero; opacity: 1;"/>
</g>
		<g id="path19" transform="matrix(37.8 0 0 37.8 -26104.17 -2044.23)">
<path stroke-linecap="round" d="M 262.40178 125.8661 C 258.5798 121.74257 257.96869 118.04211000000001 257.96869 99.02386 C 257.96869 82.310189 259.41387 75.795884 263.873 72.410144 C 266.77019 70.21066400000001 285.1085 70.19082 287.99561 72.38419400000001 C 289.16242 73.270812 290.7531 75.62507400000001 291.53097 77.61579900000001 C 293.22166000000004 81.945704 293.20896000000005 117.55086 291.51437000000004 122.00697000000001 C 289.48714000000007 127.33859000000001 285.59221 128.98403000000002 274.99676000000005 128.98403000000002 C 266.22312000000005 128.98403000000002 265.01432000000005 128.68241 262.40195000000006 125.86619000000002 z" transform="translate(-275.38, -99.87)" style="stroke: none; stroke-width: 1.24023; stroke-dasharray: none; stroke-linecap: butt; stroke-dashoffset: 0; stroke-linejoin: miter; stroke-miterlimit: 4; fill: rgb(255,246,213); fill-rule: nonzero; opacity: 1;"/>
</g>
		<g id="path20" transform="matrix(37.8 0 0 37.8 -29614.04 -2021.84)">
<path stroke-linecap="round" d="M 181.87563 126.70422 C 180.74073 125.45009 178.28232 121.41864000000001 176.41241 117.74453000000001 C 173.41251 111.85094000000001 171.9578 110.50315 164.04437 106.29151000000002 C 156.01484 102.01796000000002 154.93779999999998 101.00435000000002 153.75492999999997 96.61165500000001 C 152.10225999999997 90.47438100000001 153.44218999999998 77.03087900000001 155.99861999999996 74.10400600000001 C 157.04112999999995 72.91020700000001 159.35364999999996 71.93389400000001 161.13751999999997 71.93389400000001 C 167.02570999999998 71.93389400000001 182.83460999999997 76.994049 188.73069999999996 80.765234 C 201.34994999999995 88.83759 210.34072999999995 102.56899000000001 211.71307999999996 115.86580000000001 C 212.35283999999996 122.06578 212.13535999999996 122.8508 208.96225999999996 125.79133 C 205.80924999999996 128.71312 204.60044999999997 128.98458 194.72784999999996 128.98458 C 185.83019999999996 128.98458 183.57735999999997 128.58771 181.87560999999997 126.70414 z" transform="translate(-182.52, -100.46)" style="stroke: none; stroke-width: 1.24023; stroke-dasharray: none; stroke-linecap: butt; stroke-dashoffset: 0; stroke-linejoin: miter; stroke-miterlimit: 4; fill: rgb(255,246,213); fill-rule: nonzero; opacity: 1;"/>
</g>
		<g id="path21" transform="matrix(37.8 0 0 37.8 -30900.6 -7.26)">
<path stroke-linecap="round" d="M 159.99019 236.00483 C 154.63934 234.03737 153.78902000000002 231.86543 153.78902000000002 220.16556 C 153.78902000000002 206.72491 154.82725000000002 205.23846 166.73329 201.63396 C 178.34836 198.11765 183.42811 191.13201 180.29928 182.97846 C 178.66511 178.71999000000002 166.60828 174.07759000000001 138.2861 166.80200000000002 C 110.09557000000001 159.55982000000003 93.781261 150.18675000000002 87.37954200000001 137.55359 C 76.11083500000001 115.31589000000001 84.46894100000002 90.69806000000001 107.42996000000002 78.49741100000001 C 114.26446000000003 74.86600600000001 127.40637000000002 70.69326400000001 132.01027000000002 70.69326400000001 C 133.13652000000002 70.69326400000001 135.42792000000003 72.06327600000002 137.10225000000003 73.73729400000002 C 139.87784000000002 76.51303700000003 140.14644 77.75446200000002 140.14644 87.80777900000002 C 140.14644 100.60874000000003 139.70115 101.29454000000003 128.72575 105.39481000000002 C 121.66391 108.03324000000002 115.34176000000001 113.71387000000001 115.34176000000001 117.42108000000002 C 115.34176000000001 118.46009000000002 117.15802000000001 121.12630000000001 119.37790000000001 123.34642000000002 C 123.76059000000001 127.72950000000003 133.61563 131.25455000000002 164.92568 139.64083000000002 C 184.49146 144.88117000000003 193.91355 149.30902000000003 202.49737 157.29645000000002 C 211.85807 166.00682000000003 214.5335 172.76068000000004 214.54832 187.71794000000003 C 214.55921999999998 198.74852000000004 214.19749 200.70265000000003 210.84945 207.71861 C 206.40627999999998 217.0285 200.17041999999998 222.95916000000003 188.85651 228.63526000000002 C 182.33283999999998 231.90789 164.47636999999997 237.37373000000002 162.22578 236.78652000000002 C 162.01941 236.73272000000003 161.01333 236.38171000000003 159.99011 236.00071000000003 z" transform="translate(-148.47, -153.76)" style="stroke: none; stroke-width: 1.24023; stroke-dasharray: none; stroke-linecap: butt; stroke-dashoffset: 0; stroke-linejoin: miter; stroke-miterlimit: 4; fill: rgb(255,246,213); fill-rule: nonzero; opacity: 1;"/>
</g>
		<g id="path22" transform="matrix(37.8 0 0 37.8 -32384.93 1913.87)">
<path stroke-linecap="round" d="M 116.28024 231.40021 C 96.261753 224.33504 85.72501 213.66697 80.13190800000001 194.80167999999998 C 77.482847 185.86651999999998 77.61341900000001 182.07143999999997 80.70499500000001 178.14086999999998 C 83.12148700000002 175.06905999999998 83.906664 174.873 93.808986 174.873 C 99.602407 174.873 105.46432 175.47625 106.83545000000001 176.2073 C 108.20658 176.93755000000002 110.88715 181.01583 112.79231000000001 185.26176 C 116.75161000000001 194.08635 121.37293000000001 198.50730000000001 129.86532000000003 201.59467 C 139.06557000000004 204.93953000000002 140.14623000000003 206.81834 140.14623000000003 219.46666000000002 C 140.14623000000003 228.38595 139.74538000000004 230.66171000000003 137.87817000000004 232.35176 C 134.64927000000003 235.27355 126.20076000000005 234.90208 116.28003000000004 231.40005000000002 z" transform="translate(-109.2, -204.59)" style="stroke: none; stroke-width: 1.24023; stroke-dasharray: none; stroke-linecap: butt; stroke-dashoffset: 0; stroke-linejoin: miter; stroke-miterlimit: 4; fill: rgb(255,246,213); fill-rule: nonzero; opacity: 1;"/>
</g>
		<g id="Selection" transform="matrix(37.8 0 0 37.8 0 0)">
<path stroke-linecap="round" d="M 128.17983 69.95987 C 144.12983 68.06987 141.19983000000002 81.72986999999999 141.17983 92.51987 C 141.16983000000002 95.50986999999999 141.47983000000002 98.68987 139.57983000000002 101.21987 C 135.52983 106.58987 130.82983000000002 104.00987 122.26983000000001 109.69987 C 119.32983000000002 111.65987 115.72983 115.65987 117.30983000000002 119.47987 C 118.68983000000001 122.81987000000001 124.01983000000001 125.77987 127.21983000000002 127.18987 C 132.55983 129.52987 142.46983 132.63987 148.17983 133.99987 L 154.17983 135.14987 L 180.17983 142.47987 C 197.73983 148.73987 216.14983 162.22987 216.17983 182.51987 L 216.17983 194.51987 C 216.07983000000002 199.99987 215.60983000000002 199.68986999999998 213.76983 204.51987 C 208.28983000000002 218.85987 202.46983 223.29987 189.17983 229.93986999999998 C 185.88983000000002 231.57986999999997 182.77983 233.51987 179.17983 234.38986999999997 C 169.22983000000002 236.77986999999996 152.47983000000002 242.81986999999998 152.17983 226.51986999999997 L 152.17983 213.51986999999997 C 152.43983 199.49986999999996 165.41983000000002 203.25986999999998 174.13983000000002 197.66986999999997 C 178.35983000000002 194.96987 182.52983 188.58986999999996 179.30983 183.72986999999998 C 177.00983 180.24987 171.89983 178.21987 168.17983 176.72986999999998 C 160.69983000000002 173.72986999999998 153.04983000000001 171.62986999999998 145.17983 169.85986999999997 L 136.17983 167.27986999999996 L 129.17983 165.96986999999996 C 117.80983 163.04986999999997 99.53982900000001 155.00986999999995 91.64982900000001 146.34986999999995 C 86.79982900000002 141.02986999999996 84.61982900000001 136.29986999999994 82.75982900000001 129.51986999999997 C 81.09982900000001 123.50986999999996 81.109829 122.74986999999997 81.17982900000001 116.51986999999997 C 81.34982900000001 102.45986999999997 88.60982900000002 89.13986999999997 100.18983000000001 81.20986999999997 C 109.13983000000002 75.07986999999997 117.57983000000002 71.99986999999996 128.17983 69.95986999999997 z M 265.17983000000004 70.25986999999999 C 269.72983000000005 69.15987 274.50983 69.49986999999999 279.17983000000004 69.51987 C 282.03983000000005 69.52987 285.48983000000004 69.43987 288.07983 70.82987 C 296.52983 75.38987 294.17983000000004 94.03987000000001 294.17983000000004 102.51987 C 294.17983000000004 110.08986999999999 295.65983000000006 121.49987 289.90983000000006 127.17987 C 285.3798300000001 131.64987 277.17983000000004 130.61987 271.17983000000004 130.51987 C 266.03983000000005 130.41987 262.17983000000004 129.18986999999998 259.45983 124.42987 C 257.55983000000003 121.12987 257.22983 117.23987 257.17983000000004 113.51987 L 257.17983000000004 88.51987 C 257.18983000000003 84.00986999999999 257.21983000000006 79.62987 259.45983 75.53987 C 261.10983 72.50986999999999 262.27983 71.81987 265.17983000000004 70.25986999999999 z M 470.17983000000004 134.51987 L 442.29983000000004 169.60987 C 438.85983000000004 174.30987 432.46983000000006 183.32987 426.17983000000004 183.95987 C 423.12983 184.26987 420.37983 182.11987 418.21983000000006 180.21987 C 412.53983000000005 175.22986999999998 408.72983000000005 168.54987 404.26983000000007 162.55987 L 361.2598300000001 105.51987 C 357.01983000000007 99.70987 345.96983000000006 88.11986999999999 345.28983000000005 81.51987 C 343.76983000000007 66.72987 359.49983000000003 69.46987 369.17983000000004 69.51987 C 380.22983000000005 69.57987 381.44983 74.26987 387.82983 82.51987 L 401.82983 100.51987 C 406.35983 106.45987 421.88983 126.44987 424.17983000000004 131.51987 C 429.73983000000004 128.64987 431.87983 123.36986999999999 435.60983000000004 118.51987 L 460.53983000000005 85.42987 C 468.21983000000006 75.49986999999999 468.17983000000004 69.53987 482.17983000000004 69.51987 C 490.30983000000003 69.50986999999999 502.92983000000004 67.22986999999999 506.06983 77.51987 C 506.25983 79.36986999999999 506.17983000000004 82.53987 506.06983 84.51987 L 506.06983 200.51987 L 506.06983 223.51987 C 506.10983000000004 227.29987 505.76983 230.30987 502.69983 232.95987 C 499.87983 235.38987 495.70983 235.46987 492.17983000000004 235.51987 L 484.17983000000004 235.51987 C 472.45983 235.36987 470.30983000000003 230.35987 470.17983000000004 219.51987 z M 593.17983 183.51987 L 593.17983 221.51987 C 592.98983 236.95987 583.15983 235.65987 571.17983 235.51987 C 567.6498300000001 235.46987 563.47983 235.38987 560.65983 232.95987 C 556.9898300000001 229.78987 557.18983 225.91987 557.17983 221.51987 L 557.17983 161.51987 C 557.19983 150.38987 560.5298300000001 148.53987 571.17983 148.51987 L 629.17983 148.51987 C 637.19983 148.41987 646.6298300000001 146.11987 651.7598300000001 139.49987 C 662.15983 126.10986999999999 653.81983 105.76987 633.17983 105.51987 L 571.17983 105.51987 C 562.8998300000001 105.39986999999999 557.34983 102.45987 557.17983 93.51987 L 557.17983 82.51987 C 557.2498300000001 71.60987 562.28983 69.53987 572.17983 69.51987 L 622.17983 69.51987 C 639.05983 69.51987 653.29983 68.80987 668.17983 78.75986999999999 C 701.42983 101.01987 701.2698300000001 155.13986999999997 666.17983 175.34987 C 658.68983 179.65987 646.81983 183.47987 638.17983 183.51987 z M 737.2698300000001 70.14986999999999 C 741.0998300000001 69.37987 755.66983 68.94986999999999 759.0098300000001 70.14986999999999 C 760.79983 70.89986999999999 762.4498300000001 72.26987 763.5298300000001 73.84987 C 766.07983 77.56987 766.16983 84.12987 766.17983 88.51987 L 766.17983 216.51987 C 766.16983 222.93986999999998 766.2498300000001 231.83987 759.15983 234.62986999999998 C 756.57983 235.64987 752.94983 235.51986999999997 750.17983 235.51986999999997 L 744.17983 235.51986999999997 C 731.6298300000001 235.36986999999996 729.19983 230.22986999999998 729.17983 218.51986999999997 L 729.17983 107.51986999999997 C 729.17983 101.79986999999997 728.54983 81.60986999999997 730.06983 77.51986999999997 C 731.49983 73.67986999999997 733.60983 71.64986999999996 737.2698300000001 70.14986999999996 z M 889.17983 70.25986999999999 C 895.16983 68.80986999999999 917.5298300000001 69.51987 925.17983 69.51987 L 995.17983 69.51987 C 1006.0598 69.57987 1009.1298 72.89986999999999 1009.1798 83.51987 C 1009.2098 90.33986999999999 1010.9398 101.69987 1003.1598 104.77987 C 1000.9698 105.64987 997.55983 105.51987 995.17983 105.51987 L 896.17983 105.51987 C 892.22983 105.50986999999999 888.68983 105.79987 885.60983 102.79987 C 882.5398299999999 99.80987 882.22983 93.57987 882.17983 89.51987 C 882.08983 81.45987 881.08983 74.62987 889.17983 70.25986999999999 z M 1153.1798000000001 179.51987 C 1151.3098000000002 187.19987 1152.1998 212.05987 1152.1798000000001 221.51987 C 1152.1698000000001 225.91987 1152.3698000000002 229.78987 1148.6998 232.95987 C 1145.4598 235.75987 1140.2098 235.50987 1136.1798000000001 235.51987 C 1129.2698 235.52987 1119.8098000000002 236.60987 1116.7798 228.51987 C 1116.0698 226.60987 1116.1798000000001 223.57987 1116.1798000000001 221.51987 L 1116.1798000000001 157.51987 C 1116.2698 143.83987 1124.9098000000001 143.53987 1136.1798000000001 143.51987 L 1190.1798000000001 143.51987 C 1197.9698 143.42987 1208.4198000000001 142.25987 1213.9598 136.34987 C 1220.4198000000001 129.44987 1219.0698 117.86987 1212.1298000000002 111.78987000000001 C 1206.7198 107.05987 1200.1398000000002 105.54987000000001 1193.1798000000001 105.51987000000001 L 1140.1798000000001 105.51987000000001 C 1132.8798000000002 105.51987000000001 1124.0198 107.05987000000002 1118.6098000000002 101.04987000000001 C 1115.0998000000002 97.15987000000001 1116.1098000000002 87.65987000000001 1116.1798000000001 82.51987000000001 C 1116.3298000000002 71.67987000000001 1121.4098000000001 69.53987000000001 1131.1798000000001 69.51987000000001 L 1183.1798000000001 69.51987000000001 C 1200.4898 69.51987000000001 1212.2398 68.01987000000001 1228.1798000000001 76.94987 C 1250.7998 89.61987 1259.9398 114.93987000000001 1253.1898 139.51987 C 1251.8098 144.54987 1250.3498000000002 149.65987 1247.4798 154.09987 C 1242.6998 161.45987000000002 1233.8998000000001 167.56987 1226.1798000000001 171.51987000000003 C 1228.6798000000001 177.84987000000004 1244.2098 200.29987000000003 1249.0098 207.51987000000003 C 1252.1498000000001 212.22987000000003 1257.9998 219.78987000000004 1257.9698 225.51987000000003 C 1257.9198000000001 237.66987000000003 1243.3598000000002 235.52987000000002 1235.1798000000001 235.51987000000003 C 1231.3598000000002 235.50987000000003 1225.8298000000002 235.58987000000002 1222.5498 233.37987000000004 C 1219.5798 231.37987000000004 1214.7498 222.95987000000005 1212.7798 219.60987000000003 L 1198.3298 196.51987000000003 C 1192.9898 187.97987000000003 1191.1798 180.58987000000002 1180.1798 180.51987000000003 C 1172.3698 180.46987000000001 1160.3698 181.26987000000003 1153.1798 179.51987000000003 z M 1305.2698 70.23987 C 1311.1098 68.81987 1333.6498000000001 69.51987 1341.1798000000001 69.51987 L 1412.1798000000001 69.51987 C 1423.0198 69.57987 1426.0498 73.96987 1426.1798000000001 84.51987 C 1426.2498 90.62987 1427.0098 101.94987 1420.1298000000002 104.77987 C 1418.0098000000003 105.64987 1414.4898 105.51987 1412.1798000000001 105.51987 L 1325.1798000000001 105.51987 C 1314.9498 105.51987 1299.4498 109.11986999999999 1299.1798000000001 94.51987 C 1299.1098000000002 90.59987 1298.6398000000002 77.71987 1300.1098000000002 74.81987 C 1301.3398000000002 72.40987 1303.0198000000003 71.45987 1305.2698000000003 70.23987 z M 1531.1798000000001 179.51987 C 1532.6298000000002 172.43986999999998 1536.0698000000002 166.23987 1538.5398 159.51987 L 1557.6198 110.51987 L 1564.1298 94.51987 C 1566.2297999999998 88.57987 1571.1598 74.49987 1576.1997999999999 71.25986999999999 C 1578.8398 69.54987 1581.1698 69.55986999999999 1584.1798 69.65987 L 1596.1798 69.65987 C 1598.0297999999998 69.51987 1601.3798 69.43987 1603.0798 69.65987 C 1606.8798 71.09987 1610.1198 76.64986999999999 1609.7998 80.51987 L 1599.1598 108.51987 L 1560.9697999999999 202.51987 L 1553.9797999999998 219.51987 C 1551.5297999999998 225.96987 1549.6897999999999 233.25987 1543.1798 236.74987 C 1538.7197999999999 239.13986999999997 1531.2697999999998 238.57987 1526.1798 238.51987 C 1515.3698 238.38987 1512.6997999999999 234.77987 1508.7597999999998 225.51987 L 1502.0097999999998 208.51987 L 1469.9897999999998 129.51987 L 1460.8197999999998 107.51987 L 1450.6697999999997 80.51987 C 1450.1997999999996 76.00986999999999 1453.9297999999997 71.14986999999999 1458.1897999999997 69.65987 C 1459.9997999999996 69.43987 1463.2297999999996 69.51987 1465.1797999999997 69.65987 L 1529.1797999999997 69.65987 C 1538.7397999999996 69.53987 1543.0397999999996 72.34987 1543.1797999999997 82.51987 C 1543.2397999999996 87.21987 1543.9397999999997 97.53987 1541.3297999999998 101.21987 C 1538.7197999999999 104.88987 1535.3397999999997 105.43987 1531.1797999999997 105.51987 L 1500.1797999999997 105.51987 L 1517.9697999999996 149.51987 L 1529.1797999999997 179.51987 z M 1649.3498000000002 70.18987 C 1653.0498000000002 69.30987 1668.7998000000002 68.86987 1672.1798000000001 70.18987 C 1674.3598000000002 70.92987 1676.3098000000002 72.60987 1677.5798000000002 74.53987 C 1679.4398 77.35986999999999 1679.1698000000001 80.30986999999999 1679.1798000000001 83.51987 L 1679.1798000000001 117.51987 C 1678.9698 132.73987 1667.3398000000002 130.66987 1656.1798000000001 130.51987 C 1647.8698000000002 130.39987 1643.3398000000002 127.22986999999999 1643.1798000000001 118.51987 L 1643.1798000000001 82.51987 C 1643.2198 76.40987 1643.8498000000002 73.60987 1649.3498000000002 70.18987 z M 1721.3498000000002 70.25986999999999 C 1726.3898000000002 68.95987 1739.3598000000002 69.43987 1745.1798000000001 69.51987 C 1749.1598000000001 69.57987 1751.4698 69.57987 1754.1798000000001 72.74987 C 1759.5598000000002 78.54987 1760.0898000000002 97.85987 1754.1798000000001 103.20987 C 1751.0598000000002 105.82987 1747.8598000000002 105.50986999999999 1744.1798000000001 105.51987 C 1738.8898000000002 105.52987 1723.3098000000002 106.57987 1719.4798 104.00986999999999 C 1712.9098000000001 99.59987 1712.8098 81.95987 1716.1298000000002 75.53987 C 1717.5698000000002 72.72986999999999 1718.7698000000003 71.82987 1721.3498000000002 70.25986999999999 z M 1804.1798000000001 105.51987 L 1804.1798000000001 162.51987 L 1804.1798000000001 222.51987 C 1803.9598 238.28987 1793.5298 238.67987 1781.1798000000001 238.51987 C 1776.8898000000002 238.45987 1773.7498 238.08987 1770.4498 234.98987 C 1766.2398 231.02987 1766.1898 225.82987 1766.1798000000001 220.51987 L 1766.1798000000001 104.51987 C 1766.1798000000001 95.82987 1763.7098 75.28987 1772.2298 70.68987 C 1774.7898 69.30987 1778.3298 69.51987 1781.1798000000001 69.51987 L 1840.1798000000001 69.51987 C 1844.5998000000002 69.52987 1848.5598000000002 69.18987 1851.8698000000002 72.74987 C 1855.4098000000001 76.54987 1855.1998 83.61987 1855.1798000000001 88.51987 C 1855.1398000000002 98.71987 1854.0198 105.43987 1842.1798000000001 105.51987 z M 157.19983000000002 71.53987000000001 C 164.06983000000002 69.22987 165.87983000000003 71.49987 172.17983 72.99987 L 179.17983 74.47987 C 190.80983 78.59987000000001 203.70983 89.00987 208.58983 100.51987 C 212.40983 109.54987 218.29983000000001 125.35987 205.17983 129.81987 C 203.19983000000002 130.48987 201.23983 130.48987 199.17983 130.51987 L 190.17983 130.51987 C 174.76983 130.41987 179.82983000000002 120.55986999999999 171.98983 112.64986999999999 C 167.20983 107.82987 158.51983 106.03987 155.03983000000002 102.71986999999999 C 150.75983000000002 98.62986999999998 152.13983000000002 88.19986999999999 152.17983 82.51986999999998 C 152.18983 80.66986999999999 152.12983 78.25986999999998 152.77983 76.51986999999998 C 153.79983000000001 73.79986999999998 154.99983 73.12986999999998 157.19983 71.53986999999998 z M 265.17983000000004 135.25987 C 271.76983 133.65987 286.70983 133.05987000000002 291.20983 138.84987 C 295.44983 144.28987 294.17983000000004 155.70987000000002 294.17983000000004 162.51987000000003 L 294.17983000000004 219.51987000000003 C 294.15983000000006 231.67987000000002 291.67983000000004 235.45987000000002 279.17983000000004 235.51987000000003 L 272.17983000000004 235.51987000000003 C 258.84983000000005 235.35987000000003 257.19983 229.63987000000003 257.17983000000004 217.51987000000003 L 257.17983000000004 151.51987000000003 C 257.26983 144.32987000000003 258.43983000000003 138.88987000000003 265.17983000000004 135.25987000000003 z M 889.17983 135.36987000000002 C 895.20983 133.71987000000001 914.73983 134.51987000000003 922.17983 134.51987000000003 L 986.17983 134.51987000000003 C 995.7598300000001 134.64987000000002 1000.0498 138.93987 1000.1798 148.51987000000003 C 1000.2598 154.94987000000003 1001.3498 166.70987000000002 994.07983 169.77987000000002 C 992.00983 170.65987 988.45983 170.51987000000003 986.17983 170.51987000000003 L 896.17983 170.51987000000003 C 892.4998300000001 170.50987000000003 888.3798300000001 170.83987000000002 885.48983 168.08987000000002 C 882.27983 165.01987000000003 882.19983 158.68987 882.17983 154.51987000000003 C 882.1398300000001 146.26987000000003 880.97983 139.91987000000003 889.17983 135.36987000000002 z M 1305.1798000000001 135.44987000000003 C 1311.1798000000001 133.64987000000002 1329.8298000000002 134.51987000000003 1337.1798000000001 134.51987000000003 L 1401.1798000000001 134.51987000000003 C 1406.5998000000002 134.52987000000002 1410.6698000000001 134.44987000000003 1414.5298 138.98987000000002 C 1417.9798 143.03987000000004 1418.0198 157.42987000000002 1416.6098 162.51987000000003 C 1415.9797999999998 164.81987000000004 1414.6098 167.29987000000003 1412.6997999999999 168.77987000000002 C 1410.0397999999998 170.84987 1406.3698 170.50987 1403.1798 170.51987000000003 L 1312.1798 170.51987000000003 C 1308.5197999999998 170.50987000000003 1304.6997999999999 170.93987 1301.8998 168.08987000000002 C 1297.8198 163.92987000000002 1299.0798 151.29987000000003 1299.1798 145.51987000000003 C 1299.2197999999999 143.51987000000003 1299.1798 141.49987000000002 1300.1997999999999 139.68987 C 1301.4597999999999 137.46987000000001 1303.1098 136.65987 1305.1798 135.44987 z M 1650.1798000000001 135.23987000000002 C 1656.7098 133.70987000000002 1673.0598000000002 133.03987000000004 1677.4398 138.84987000000004 C 1679.4898 141.56987000000004 1679.1698000000001 145.28987000000004 1679.1798000000001 148.51987000000003 L 1679.1798000000001 221.51987000000003 C 1679.1598000000001 232.76987000000003 1676.5898000000002 235.45987000000002 1665.1798000000001 235.51987000000003 L 1656.1798000000001 235.51987000000003 C 1645.9098000000001 235.38987000000003 1643.1998 232.55987000000002 1643.1798000000001 222.51987000000003 L 1643.1798000000001 159.51987000000003 C 1643.1798000000001 155.53987000000004 1642.5298 142.65987 1644.1998 139.81987000000004 C 1645.5898000000002 137.44987000000003 1647.8398000000002 136.37987000000004 1650.1798000000001 135.23987000000002 z M 83.26982900000007 174.24987000000002 C 87.23982900000007 173.26987000000003 102.55983000000008 172.84987 106.17983000000007 174.24987000000002 C 108.02983000000006 174.97987 109.42983000000007 176.07987000000003 110.66983000000006 177.62987 C 114.32983000000006 182.17987000000002 114.16983000000006 189.19987 119.30983000000006 194.21987000000001 C 127.21983000000006 201.93987 135.72983000000005 200.27987000000002 139.43983000000006 204.90987 C 142.06983000000005 208.18987 141.18983000000006 219.99987000000002 141.17983000000007 224.51987000000003 C 141.17983000000007 226.81987000000004 141.38983000000007 230.25987000000003 140.15983000000006 232.24987000000002 C 136.00983000000005 238.91987 123.09983000000005 235.07987000000003 117.17983000000005 233.08987000000002 C 97.80982900000005 226.57987000000003 86.09982900000006 217.36987000000002 79.58982900000005 197.51987000000003 C 76.88982900000005 189.26987000000003 73.94982900000005 179.28987000000004 83.26982900000006 174.24987000000002 z M 355.1798300000001 175.04987000000003 C 358.5398300000001 174.49987000000002 360.7998300000001 174.47987000000003 364.1798300000001 174.51987000000003 C 366.9198300000001 174.55987000000002 368.51983000000007 174.56987000000004 371.1798300000001 175.46987000000001 C 379.9298300000001 178.44987 381.1698300000001 184.18987 381.1798300000001 192.51987000000003 L 381.1798300000001 208.51987000000003 C 381.1798300000001 215.98987000000002 382.7398300000001 227.60987000000003 376.6498300000001 232.95987000000002 C 372.81983000000014 236.31987000000004 363.19983000000013 235.57987000000003 358.17983000000015 235.51987000000003 C 353.48983000000015 235.45987000000002 348.86983000000015 235.12987000000004 346.34983000000017 230.46987000000001 C 345.0698300000002 228.08987000000002 345.18983000000014 225.13987 345.17983000000015 222.51987000000003 L 345.17983000000015 194.51987000000003 C 345.17983000000015 191.22987000000003 344.8398300000002 183.44987000000003 346.04983000000016 180.72987000000003 C 347.59983000000017 177.24987000000004 351.8398300000002 176.03987000000004 355.17983000000015 175.04987000000003 z M 785.17983 200.14987000000002 L 828.17983 199.51987000000003 C 832.97983 199.52987000000002 837.73983 199.71987000000001 841.78983 202.70987000000002 C 847.93983 207.22987000000003 847.81983 227.84987 842.5298300000001 232.95987000000002 C 839.6198300000001 235.77987000000002 833.9698300000001 235.50987000000003 830.17983 235.51987000000003 L 790.17983 235.51987000000003 C 785.81983 235.49987000000002 781.78983 235.56987000000004 778.45983 232.23987000000002 C 777.08983 230.87987 776.2798300000001 229.35987000000003 775.74983 227.51987000000003 C 774.57983 223.45987000000002 774.57983 208.11987000000002 777.02983 204.78987000000004 C 778.87983 202.28987000000004 782.36983 201.14987000000005 785.1798299999999 200.14987000000005 z M 892.17983 200.04987000000003 L 927.17983 199.51987000000003 L 992.17983 199.51987000000003 C 996.95983 199.52987000000002 1004.0098 199.95987000000002 1007.3298000000001 204.00987000000003 C 1009.1798000000001 206.27987000000005 1009.1398 209.73987000000002 1009.1798000000001 212.51987000000003 C 1009.2698000000001 220.14987000000002 1011.4598000000001 232.24987000000002 1002.1798000000001 234.94987000000003 C 999.9198300000002 235.59987000000004 996.5598300000001 235.51987000000003 994.1798300000002 235.51987000000003 L 898.1798300000002 235.51987000000003 C 893.8798300000002 235.50987000000003 887.9398300000001 235.79987000000003 884.8198300000001 232.21987000000001 C 881.0798300000001 227.76987000000003 880.9898300000001 208.36987000000002 884.8198300000001 203.90987 C 886.6498300000002 201.68987 889.5098300000002 200.84987 892.1798300000002 200.04987 z M 1308.1798000000001 200.14987000000002 L 1343.1798000000001 199.51987000000003 L 1409.1798000000001 199.51987000000003 C 1414.2698 199.52987000000002 1419.8698000000002 199.63987000000003 1423.4798 203.90987 C 1427.5598 208.71987000000001 1427.5698 228.65987 1422.7898 233.00987 C 1419.6898 235.82987 1415.0798 235.50987 1411.1798000000001 235.51987 L 1325.1798000000001 235.51987 C 1315.0798000000002 235.51987 1299.4498 238.87987 1299.1798000000001 224.51987 C 1299.1098000000002 220.72987 1298.5598000000002 207.44987 1300.1998 204.78987 C 1301.7398 202.29987 1305.5598 201.08987000000002 1308.1798000000001 200.14987000000002 z" transform="translate(-966.05, -153.95)" style="stroke: rgb(0,0,0); stroke-width: 1; stroke-dasharray: none; stroke-linecap: butt; stroke-dashoffset: 0; stroke-linejoin: miter; stroke-miterlimit: 4; fill: rgb(244,238,215); fill-rule: nonzero; opacity: 1;"/>
</g>
</g>
</g>
</svg>